<svg xmlns="http://www.w3.org/2000/svg" viewBox="0 0 149.99999 173.19908" height="173.199" width="150"><path d="M48.961 170.313c-2.314-2.463-2.91-4.983-3.232-13.666l-.395-10.646-6.667-3.595c-12.777-6.89-12.652-6.471-12.66-42.533-.006-28.79.2-31.647 2.432-33.667 2.165-1.96 7.368-2.207 46.46-2.207 40.954 0 44.175.17 46.228 2.438 1.925 2.127 2.207 6.542 2.207 34.564v32.126l-3.835 3.835c-2.109 2.109-6.309 4.651-9.333 5.649-6.228 2.056-5.977 1.466-6.085 14.276-.069 8.213-.534 10.039-3.313 13-3.895 4.151-8.506 4.412-12.49.707-2.394-2.227-3.069-4.655-3.611-13L84 147.332h-8c-11.607 0-11.333-.243-11.333 10.074 0 7.743-.477 9.636-3.153 12.524-3.901 4.209-8.817 4.359-12.553.382zM3.334 125.381l-3.333-2.56V96.853c0-25.648.04-26.01 3.232-29.41 4.138-4.407 8.696-4.376 12.831.086 3.231 3.486 3.27 3.827 3.27 28.727 0 24.977-.029 25.228-3.273 28.472-3.914 3.914-8.196 4.134-12.727.653zm130.481.07c-3.118-2.525-3.148-2.799-3.148-29.221 0-26.504.02-26.69 3.204-29.451 4.23-3.668 8.284-3.51 12.601.491L150 70.54v51.934l-3.513 2.763c-4.38 3.445-8.595 3.517-12.672.215zM26.001 54.242c0-8.356 6.401-23.199 13.494-31.288 4.273-4.874 4.648-7.375 1.84-12.287C38.958 6.509 38.754-.011 41.002.032c.917.017 3.432 2.417 5.589 5.333 4.342 5.869 5.82 6.215 14.078 3.302 7.593-2.679 21.468-2.535 29.465.305l6.49 2.305 5.103-5.638c2.806-3.101 5.817-5.638 6.689-5.638 2.536 0 1.837 6.524-1.297 12.101l-2.884 5.131 5.437 5.899c2.99 3.244 6.481 7.917 7.758 10.384 2.68 5.18 5.866 16.444 5.89 20.819l.016 3H26.002zm29.562-11.115C60.132 38.992 57.894 32 52.001 32c-5.81 0-8.342 7.928-3.667 11.477 3.088 2.344 4.317 2.284 7.228-.351zm46.438-.46c1.467-1.467 2.667-3.369 2.667-4.228 0-2.66-4.268-6.438-7.273-6.438-5.834 0-8.048 6.26-3.853 10.895 2.846 3.144 5.149 3.082 8.46-.228z" fill="#616161"/></svg>