<svg xmlns="http://www.w3.org/2000/svg" viewBox="0 0 173.26194 173.32837" height="173.328" width="173.262"><path d="M7.338 170.365c-1.749-2.496-2.076-8.392-2.076-37.421 0-21.203.531-35.45 1.38-37.037 1.294-2.418 3.047-2.579 28.046-2.579h26.666l-4.935 4.333c-7.212 6.332-10.29 14.24-10.249 26.333.019 5.5.73 12.494 1.581 15.543 2.191 7.854 9.193 17.685 15.963 22.415 5.478 3.827 6.471 4.041 18.667 4.022 11.453-.018 13.658-.427 19.893-3.695 13.137-6.886 19.805-20.968 18.705-39.505-.676-11.396-2.999-16.999-10.135-24.447l-4.79-5h26.004c18.448 0 26.469.465 27.604 1.6 2.282 2.282 2.282 74.518 0 76.8-1.206 1.206-19.894 1.6-75.924 1.6H9.414zm63.924-12.875c-24.697-11.329-25.785-48.726-1.766-60.695 26.107-13.01 53.214 13.199 43.151 41.721-6.12 17.346-25.532 26.247-41.385 18.975zm23.066-6.043c13.705-7.16 19.094-25.453 11.568-39.272-9.354-17.176-31.013-19.157-42.361-3.875-3.847 5.181-6.273 11.912-6.273 17.405 0 10.142 6.644 21.233 15.333 25.597 5.046 2.534 17.006 2.614 21.733.144zm-15.45-10.291c-10.921-3.15-12.894-20.84-3.03-27.162 6.469-4.146 14.972-2.604 19.24 3.489 2.825 4.033 2.825 14.322 0 18.355-1.744 2.49-9.827 7.221-11.45 6.702a664.81 664.81 0 0 0-4.76-1.385zM11.471 85.151c-2.908-1.691-6.208-9.016-6.208-13.78 0-3.373.01-3.376 12.548-3.376h12.548l2.905-6 2.905-6h67.422l.812 5.077c.884 5.527 4.733 9.938 10.616 12.167 2.087.791 13.186 1.422 25 1.422 23.7 0 24.894.558 17.349 8.103l-3.897 3.897H94.447l2.076-2.963c3.125-4.462 2.769-16.343-.591-19.703-2.274-2.274-4.444-2.667-14.754-2.667-16.6 0-17.246.466-17.246 12.447 0 5.756.649 10.336 1.6 11.286 2.135 2.135-50.389 2.223-54.058.09zm59.392-6.757c-2.215-2.215-2-5.809.495-8.305 2.542-2.542 16.559-2.908 18.971-.495.88.88 1.6 2.86 1.6 4.4 0 4.571-2.699 6-11.333 6-4.548 0-8.839-.705-9.733-1.6zm49.625-11.692c-4.734-1.915-9.678-9.04-10.617-15.301-.488-3.252-.674-13.327-.414-22.387.523-18.245 1.759-21.665 9.545-26.412 3.66-2.232 6.77-2.599 22.059-2.603 29.604-.008 32.202 2.74 32.202 34.074 0 22.06-1.279 26.689-8.633 31.234-3.834 2.37-6.538 2.678-22.858 2.603-10.18-.046-19.758-.59-21.285-1.207zm27.775-26.972c3.269-3.781 2.904-8.62-.939-12.464-5.047-5.047-10.18-4.154-13.548 2.359-5.21 10.074 7.094 18.655 14.488 10.105zM1.53 59.727c-2.214-2.215-2-5.809.495-8.305 1.551-1.551 4.831-2.095 12.636-2.095 9.695 0 10.711.26 12.666 3.244 1.653 2.523 1.798 3.856.65 6-1.319 2.464-2.713 2.756-13.161 2.756-7.312 0-12.285-.599-13.286-1.6z" fill="#606060"/></svg>