<svg xmlns="http://www.w3.org/2000/svg" viewBox="0 0 179.04477 173.16609" height="173.166" width="179.045"><path d="M52.268 170.793c0-1.506 1.617-3.774 3.893-5.461 5.994-4.441 7.228-7.451 7.228-17.629v-9.037h52.268v9.421c0 11.336.942 13.74 6.78 17.311 3.01 1.841 4.362 3.484 4.118 5.004-.332 2.066-3.582 2.294-37.325 2.615-35.887.341-36.962.276-36.962-2.225zM2.224 132C.064 129.41 0 127.556 0 67.43V5.527l2.93-2.763C5.835.024 6.567.001 89.522.001s83.687.023 86.592 2.763l2.93 2.763V67.43c0 60.125-.064 61.98-2.224 64.57-2.185 2.62-3.707 2.667-87.298 2.667-83.591 0-85.113-.046-87.298-2.667zm93.871-5.201c1.379-1.826 1.551-2.803.616-3.495-.768-.569-1.036-2.524-.656-4.799.421-2.522.173-3.892-.722-3.995-6.275-.724-9.509-.417-11.649 1.105-2.925 2.081-3.243 6.523-.771 10.755 2.296 3.931 10.341 4.193 13.182.429zm-2.889-16.049c.278-1-.139-1.5-.973-1.167-.803.321-1.679 1.371-1.946 2.333-.278 1 .139 1.5.973 1.167.803-.321 1.679-1.371 1.946-2.333zm74.718-52.083V12H11.12v93.334h156.804z" fill="#606060"/></svg>