<svg xmlns="http://www.w3.org/2000/svg" viewBox="0 0 511.999 511.999"><path d="M507.77 96.789c-3.92-4.669-9.903-6.958-15.769-6.358a115.567 115.567 0 0 0 6.016-15.091c2.279-7.127-.123-15.046-5.97-19.699-5.849-4.662-14.103-5.232-20.545-1.416a177.052 177.052 0 0 1-47.157 19.455c-21.035-18.575-48.714-29.128-76.82-29.128-63.816 0-115.735 51.917-115.735 115.731 0 .714.006 1.428.019 2.142-64.801-8.793-124.951-42.372-166.494-93.332-3.765-4.618-9.554-7.099-15.467-6.617A18.139 18.139 0 0 0 35.6 71.42c-10.258 17.603-15.68 37.727-15.68 58.199 0 18.054 4.218 35.74 12.145 51.67-1.32.393-2.602.936-3.818 1.634-5.477 3.138-8.967 9.007-9.111 15.299a70.307 70.307 0 0 0-.014 1.659c0 32.878 14.268 64.167 38.287 85.933-3.841 4.722-5.072 11.157-3.206 16.976 9.946 31.053 32.666 56.265 61.702 69.726-23.159 10.637-48.524 16.184-74.48 16.184-7.086 0-14.204-.416-21.147-1.238-8.439-1.004-16.336 3.885-19.202 11.89-2.863 8 .132 16.789 7.282 21.373 47.672 30.566 102.793 46.722 159.404 46.722 111.254 0 180.924-52.547 219.777-96.631 48.338-54.836 76.06-127.446 76.06-199.211 0-1.265-.008-2.537-.024-3.811 17.576-13.928 32.828-30.48 45.386-49.265 4.459-6.669 3.966-15.612-1.191-21.74zm-60.639 57.939a10.2 10.2 0 0 0-4.057 8.456c.086 2.799.129 5.633.129 8.425 0 66.867-25.866 134.561-70.965 185.723-36.075 40.928-100.834 89.716-204.475 89.716-49.475 0-97.73-13.257-140.171-38.423 4.596.316 9.222.475 13.837.475 37.456 0 73.838-10.387 105.213-30.038a10.205 10.205 0 0 0 4.64-10.361 10.202 10.202 0 0 0-7.816-8.234c-31.581-7.104-57.553-30.05-68.608-60.322 1.701.258 3.412.473 5.115.644 4.75.466 9.202-2.416 10.699-6.954a10.2 10.2 0 0 0-4.462-11.956c-28.06-16.734-45.763-46.996-46.651-79.439a100.071 100.071 0 0 0 12.341 5.228 10.198 10.198 0 0 0 11.758-3.882 10.197 10.197 0 0 0-.651-12.365c-14.629-17.197-22.685-39.144-22.685-61.799 0-15.768 3.9-31.279 11.306-45.069 47.495 56.842 116.675 93.062 190.337 99.529a10.2 10.2 0 0 0 11.008-11.451 97.836 97.836 0 0 1-.782-12.344c0-52.566 42.768-95.332 95.336-95.332 24.725 0 49.052 9.914 66.741 27.198a10.193 10.193 0 0 0 9.323 2.665 197.24 197.24 0 0 0 52.975-19.987c-4.049 10.366-9.853 19.856-17.303 28.281a10.2 10.2 0 0 0 10.475 16.555 197.188 197.188 0 0 0 17.819-6.092 194.829 194.829 0 0 1-40.426 41.153zM89.95 145.834a262.091 262.091 0 0 1-6.377-4.91c-4.409-3.506-10.826-2.774-14.331 1.636-3.505 4.409-2.773 10.825 1.636 14.331a280.69 280.69 0 0 0 6.874 5.294 10.156 10.156 0 0 0 6.091 2.025c3.11 0 6.182-1.418 8.183-4.102 3.368-4.516 2.439-10.905-2.076-14.274zm132.378 50.565c-36.715-3.223-73.142-14.6-105.344-32.9-4.898-2.783-11.123-1.07-13.907 3.828-2.783 4.898-1.07 11.123 3.828 13.907 34.73 19.738 74.026 32.009 113.639 35.487.304.026.605.04.904.04 5.229 0 9.682-4 10.148-9.309.492-5.612-3.657-10.56-9.268-11.053z"/></svg>