<svg xmlns="http://www.w3.org/2000/svg" viewBox="0 0 71.906 71.906"><path d="M45.85 39.938a.997.997 0 0 1-.707-.293l-9.896-9.895a.999.999 0 1 1 1.414-1.414l9.896 9.895a.999.999 0 0 1-.707 1.707zm-19.887.095a.999.999 0 0 1-.707-1.707l9.99-9.99a.999.999 0 1 1 1.414 1.414l-9.99 9.99a.993.993 0 0 1-.707.293zm9.99 31.873C16.129 71.906 0 55.777 0 35.953S16.129 0 35.953 0s35.953 16.129 35.953 35.953-16.129 35.953-35.953 35.953zm0-69.906C17.231 2 2 17.231 2 35.953s15.231 33.953 33.953 33.953 33.953-15.231 33.953-33.953S54.675 2 35.953 2z"/></svg>