<svg xmlns="http://www.w3.org/2000/svg" viewBox="0 0 512 512"><circle cx="256" cy="256" r="256" fill="#34495E"/><path d="M456.778 414.723l-183.255-183.26-15.946-9.213-10.711 9.331-16.645-16.648v.008h-18.47l-4.608 13.491a77.42 77.42 0 0 0-11.996 3.215l-10.752-9.395-15.946 9.213 2.78 14.008c-1.574 1.357-3.146 2.778-4.572 4.247-1.498 1.459-2.926 3.034-4.278 4.641l.036-.108-14.003-2.742-9.219 15.941 9.395 10.752a82.863 82.863 0 0 0-3.215 12.001l-13.494 4.608v18.427l2.813.963 13.117 13.112c.264.842.492 1.7.783 2.527l-9.395 10.752 9.219 15.977 151.58 151.588c63.26-10.971 118.538-45.124 156.782-93.436zm-88.174-270.447l-13.896-13.934-11.082-6.4-7.437 6.497-11.579-11.581v.003h-12.8l-3.218 9.395a50.037 50.037 0 0 0-8.34 2.235l-7.457-6.548-11.082 6.4 1.902 9.728h.069c-1.129.916-2.189 1.938-3.218 2.964a34.882 34.882 0 0 0-2.962 3.22v-.074l-9.728-1.905-6.397 11.08 6.546 7.468a49.972 49.972 0 0 0-2.232 8.335l-9.398 3.22v12.8l11.579 11.576-6.495 7.437 6.397 11.082 192.717 192.714c26.67-35.361 44.337-77.867 49.715-124.127L368.604 144.276z" fill="#203549"/><path d="M380.122 187.172v-12.805l-9.4-3.205v.013a52.807 52.807 0 0 0-2.225-8.343l6.528-7.473-6.403-11.092-9.738 1.923.033.056a54.183 54.183 0 0 0-2.967-3.215 55.583 55.583 0 0 0-3.22-2.972l.054.033 1.923-9.738-11.09-6.408-7.48 6.536a54.111 54.111 0 0 0-8.333-2.235h.008l-3.203-9.388h-12.815l-3.2 9.388h.008a54.326 54.326 0 0 0-8.343 2.235l-7.473-6.536-11.09 6.408 1.925 9.738.054-.033a54.622 54.622 0 0 0-3.223 2.972 51.562 51.562 0 0 0-2.964 3.215l.036-.056-9.743-1.923-6.403 11.095 6.531 7.468a53.188 53.188 0 0 0-2.227 8.34v-.01l-9.398 3.205v12.81l9.398 3.203v-.008c.522 2.87 1.27 5.65 2.227 8.335l-6.531 7.475 6.405 11.098 9.741-1.928-.036-.054a54.436 54.436 0 0 0 6.179 6.18l-1.974 9.708 11.098 6.415 7.465-6.538a53.043 53.043 0 0 0 8.34 2.23h-.005l3.2 9.393h12.815l3.203-9.393h-.009a53.415 53.415 0 0 0 8.34-2.23l7.473 6.538 11.092-6.415-1.925-9.733-.054.028a52.536 52.536 0 0 0 3.22-2.967 52.43 52.43 0 0 0 2.962-3.213l-.028.054 9.738 1.92 6.405-11.09-6.531-7.475a52.964 52.964 0 0 0 2.225-8.335v.008l9.405-3.209zm-61.917 19.924c-14.543 0-26.327-11.786-26.327-26.327 0-14.538 11.786-26.327 26.327-26.327 14.538 0 26.324 11.789 26.324 26.327.001 14.541-11.785 26.327-26.324 26.327z" fill="#FF8E31"/><path d="M318.205 148.116c-18.038 0-32.655 14.618-32.655 32.653s14.618 32.653 32.655 32.653c18.035 0 32.658-14.618 32.658-32.653s-14.622-32.653-32.658-32.653zm0 57.749c-13.865 0-25.096-11.231-25.096-25.093 0-13.86 11.231-25.093 25.096-25.093 13.86 0 25.093 11.233 25.093 25.093.001 13.862-11.233 25.093-25.093 25.093z" fill="#FF9D4D"/><path d="M310.093 313.236v-18.435l-13.535-4.608c-.73-4.129-1.825-8.118-3.18-11.996l9.4-10.752-9.216-15.944-14.044 2.742c-1.388-1.574-2.778-3.11-4.206-4.536a84.135 84.135 0 0 0-4.57-4.239l2.78-14.008-15.949-9.213-10.785 9.393a76.436 76.436 0 0 0-11.96-3.213l-4.608-13.499h-18.468l-4.613 13.499a77.542 77.542 0 0 0-11.988 3.213l-10.755-9.393-15.946 9.213 2.78 14.008c-1.574 1.352-3.146 2.778-4.572 4.239-1.498 1.467-2.921 3.039-4.278 4.649l.036-.11-14.003-2.742-9.221 15.944 9.4 10.752a82.97 82.97 0 0 0-3.215 11.996l-13.494 4.608v18.435l13.494 4.608a80.952 80.952 0 0 0 3.215 11.996l-9.4 10.752 9.221 15.977 14.003-2.78a85.449 85.449 0 0 0 4.242 4.572c1.462 1.467 3.039 2.893 4.608 4.242l-2.816 13.975 15.982 9.249 10.721-9.398c3.873 1.354 7.898 2.45 11.988 3.182l4.613 13.524h18.468l4.608-13.524c4.134-.732 8.115-1.828 11.996-3.226l10.749 9.441 15.949-9.249-2.78-14.013a96.446 96.446 0 0 0 4.57-4.206c1.428-1.462 2.852-3 4.206-4.572l14.044 2.78 9.216-15.977-9.4-10.752c1.354-3.84 2.45-7.864 3.18-11.996l13.533-4.608zm-89.088 16.674c-14.333 0-25.928-11.587-25.928-25.884 0-14.308 11.594-25.894 25.928-25.894 14.298 0 25.894 11.587 25.894 25.894-.002 14.297-11.597 25.884-25.894 25.884z" fill="#fff"/><path d="M221.005 264.681c-21.765 0-39.378 17.615-39.378 39.345 0 21.727 17.613 39.37 39.378 39.37 21.729 0 39.345-17.643 39.345-39.37-.003-21.732-17.616-39.345-39.345-39.345zm0 60.16c-11.528 0-20.854-9.321-20.854-20.815 0-11.497 9.326-20.826 20.854-20.826 11.497 0 20.815 9.329 20.815 20.826 0 11.494-9.321 20.815-20.815 20.815z" fill="#FF9D4D"/><path d="M221.007 252.8c-28.326 0-51.259 22.93-51.259 51.218 0 28.288 22.932 51.254 51.259 51.254 28.288 0 51.213-22.968 51.213-51.254 0-28.291-22.925-51.218-51.213-51.218zm0 80.719c-16.335 0-29.542-13.21-29.542-29.501 0-16.287 13.207-29.504 29.542-29.504 16.289 0 29.499 13.217 29.499 29.504 0 16.292-13.209 29.501-29.499 29.501z" fill="#F28124"/></svg>