<svg xmlns="http://www.w3.org/2000/svg" viewBox="0 0 75.14167 75.184196" height="284.161" width="284"><path d="M30.766 74.6c-.25-.283-1.044-.516-1.764-.517-.72-.001-1.716-.215-2.214-.475a10.303 10.303 0 0 0-1.94-.723c-1.483-.36-6.05-2.672-8.395-4.25-3.085-2.077-7.868-6.86-9.944-9.945-1.587-2.357-4.392-7.911-4.392-8.695 0-.288-.237-.979-.527-1.534-.29-.556-.528-1.595-.53-2.309 0-.713-.24-1.535-.53-1.826C.097 43.894 0 42.618 0 37.42c0-3.813.135-6.375.337-6.375.185 0 .427-.595.537-1.323.376-2.48 1.941-7.046 3.053-8.908.174-.29.489-.965.699-1.499.21-.533.525-.97.7-.97.175 0 .318-.215.318-.478 0-.55 1.938-3.207 4.028-5.52 2.953-3.268 7.395-6.718 10.613-8.242a216.96 216.96 0 0 0 2.745-1.328c.733-.363 1.61-.66 1.95-.66.338 0 .929-.214 1.312-.477.382-.262 1.556-.575 2.609-.696 1.052-.12 2.076-.382 2.275-.581.462-.462 12.921-.496 12.921-.035 0 .18.913.435 2.029.566 1.115.132 2.346.437 2.734.678.388.241 1.3.55 2.028.684.728.135 1.323.397 1.323.583 0 .185.224.337.497.337.427 0 1.677.605 4.792 2.321 2.362 1.301 6.959 5.433 9.271 8.333 1.439 1.804 2.72 3.518 2.849 3.81.128.29.698 1.322 1.266 2.292.569.97 1.044 2.029 1.057 2.352.013.324.154.641.313.706.449.183 1.495 3.41 1.896 5.85.199 1.213.503 2.205.676 2.205.172 0 .314 2.937.314 6.526 0 3.779-.138 6.527-.328 6.527-.18 0-.44.913-.577 2.028-.137 1.116-.466 2.342-.73 2.725-.265.382-.482.973-.482 1.312 0 .339-.297 1.216-.66 1.95-.363.733-.96 1.968-1.328 2.744-1.524 3.218-4.974 7.66-8.243 10.614-2.312 2.089-4.968 4.027-5.518 4.027-.263 0-.479.143-.479.318 0 .175-.436.49-.97.7-.533.21-1.208.525-1.5.699-1.276.763-3.837 1.811-4.448 1.822-.366.006-.975.244-1.351.529-.377.285-1.358.518-2.18.518-.858 0-1.72.225-2.024.529-.768.768-12.88.756-13.558-.013zm15.095-1.56c1.067-.244 2.362-.665 2.877-.934.515-.27 1.205-.49 1.533-.49.328 0 1.018-.238 1.533-.527.515-.29 1.333-.69 1.818-.887.485-.199 1.358-.674 1.94-1.057.583-.383 1.297-.804 1.588-.936 1.142-.515 4.94-3.74 7.087-6.02 2.321-2.462 4.182-5.063 5.624-7.86 1.533-2.974 1.753-3.46 1.753-3.881 0-.232.215-.922.479-1.533 1.98-4.593 2.567-12.854 1.285-18.045-.384-1.553-.704-3.14-.713-3.528-.008-.388-.248-1.014-.533-1.39-.285-.377-.518-.936-.518-1.242 0-.306-.607-1.764-1.348-3.239-2.28-4.54-5.649-8.817-9.412-11.95-2.552-2.126-9.2-5.992-10.304-5.992-.276 0-.849-.196-1.272-.436-.424-.24-1.644-.623-2.711-.852a88.756 88.756 0 0 1-3.352-.79C40.71.787 34.12.976 30.552 1.816c-1.766.415-3.712.97-4.323 1.234-.612.264-1.335.48-1.609.48-.273 0-.804.232-1.181.517-.377.285-.927.523-1.222.53-.296.005-1.38.566-2.412 1.245-1.031.68-1.957 1.235-2.058 1.235-.357 0-3.137 2.264-5.162 4.204-2.032 1.948-5.189 5.708-5.651 6.732-.132.291-.552 1.006-.935 1.588-.383.582-.86 1.455-1.057 1.94a19.753 19.753 0 0 1-.887 1.818c-.29.515-.527 1.205-.527 1.533 0 .329-.22 1.018-.488 1.533-.933 1.789-1.42 5.2-1.542 10.773-.095 4.383-.002 5.952.425 7.207.3.882.551 2.091.558 2.687.006.596.244 1.392.529 1.769.285.376.522.932.527 1.234.012.764 2.368 5.411 4.035 7.959 1.749 2.673 6.783 7.707 9.491 9.49 2.681 1.765 7.211 4.091 7.966 4.091.324 0 .897.234 1.274.518.376.285 1.24.53 1.92.545.678.015 1.71.25 2.292.52 1.338.622 12.438.508 15.346-.158zm-10.76-16.943c-6.458-.916-12.115-6.07-14.439-13.157-.9-2.745-.757-8.833.275-11.676 1.129-3.11 2.712-5.472 5.227-7.8 3.592-3.326 7.203-4.765 11.954-4.765 6.666 0 12.17 3.16 15.671 8.996 1.886 3.143 2.655 6.003 2.655 9.869 0 5.439-1.729 9.628-5.556 13.46-4.274 4.28-9.51 5.962-15.787 5.073zm-.532-2.385c-.002-.146-.518-.924-1.147-1.73-.628-.807-1.415-1.96-1.747-2.564-.333-.604-.866-1.198-1.184-1.32-.642-.247-3.68 1.089-3.68 1.617 0 .532 2.852 2.699 4.586 3.484 1.624.735 3.178.986 3.172.513zm11.288-.993c1.316-.691 2.742-1.629 3.169-2.083l.776-.826-1.347-.915c-2.045-1.39-2.716-1.228-3.968.96-.59 1.031-1.395 2.167-1.79 2.524-.394.357-.716.862-.716 1.123 0 .808 1.381.529 3.876-.783zm-8.538-2.711l-.1-3.263-1.378-.113c-1.91-.156-3.033.184-3.033.918 0 1.225 3.386 5.686 4.335 5.713.153.004.232-1.46.176-3.255zm3.969 1.44c.792-1.002 1.683-2.291 1.98-2.865.72-1.392.172-1.915-2.17-2.073l-1.763-.118-.101 3.44c-.063 2.153.032 3.439.256 3.439.197 0 1.006-.82 1.798-1.822zm-13.771-4.305c2.153-1.29 2.167-1.34 1.584-5.514-.439-3.145-.475-3.175-3.847-3.175-3.678 0-3.943.235-3.246 2.867.838 3.163 2.673 7.033 3.319 6.997.137-.008 1.123-.536 2.19-1.175zm25.713-2.307c.731-1.586 1.14-3.063 1.193-4.31l.081-1.895h-3.136c-2.437 0-3.195.118-3.398.529-.492.995-1.32 6.173-1.064 6.649.141.261 1.114.918 2.163 1.46 2.323 1.2 2.547 1.068 4.161-2.433zm-16.894-.379c.847-.223.882-.343.882-3.03v-2.796l-3.235-.101c-2.89-.09-3.258-.032-3.443.552-.28.885.387 4.256 1.04 5.253.47.717.717.782 2.202.581.92-.124 2.069-.33 2.554-.459zm8.805-.539c.286-.58.525-2.006.532-3.17l.012-2.117h-6.35l-.102 2.878-.102 2.877 2.218.344c2.965.46 3.188.412 3.792-.812zm-16.922-7.752c.24-.289.653-1.678.918-3.087.266-1.41.58-2.976.698-3.481.192-.826.014-1.032-1.766-2.036-1.502-.848-2.135-1.035-2.618-.777-.91.488-2.713 4.046-3.401 6.714-.557 2.159-.555 2.301.038 2.734.908.665 5.566.613 6.13-.067zm8.752.101c.478-.478.58-5.134.127-5.847-.24-.379-3.474-1.13-4.897-1.136-.84-.004-2.154 6.1-1.487 6.904.533.642 5.63.707 6.257.08zm8.812-1.34c.054-.874-.187-2.461-.537-3.528l-.635-1.94-1.85.099c-1.019.055-2.246.25-2.727.432-.837.318-.876.465-.876 3.311 0 2.049.138 3.036.441 3.163.243.101 1.711.154 3.264.117l2.822-.067zm8.502 1.444c1.262-.799-1.627-9.022-3.415-9.723-.253-.099-1.417.304-2.588.895-1.677.846-2.076 1.2-1.884 1.671.483 1.179 1.202 4.5 1.214 5.607.008.693.251 1.268.63 1.488.757.44 5.371.488 6.043.062zM36.97 27.924c.554-.352.456-6.23-.104-6.22-.652.012-3.746 4.462-3.634 5.227.146 1.007 2.662 1.675 3.738.993zm4.957.081c1.695-.339 1.717-1.25.087-3.572-.784-1.117-1.747-2.23-2.14-2.474-.697-.433-.715-.368-.715 2.675 0 1.716.106 3.225.236 3.355.293.293 1.12.299 2.532.016zm-10.205-2.35c.168-.443.892-1.573 1.608-2.511.92-1.205 1.191-1.816.927-2.08-.722-.723-6.74 2.67-6.74 3.8 0 .664 1.66 1.564 2.92 1.582.702.01 1.065-.214 1.285-.791zm16.037.271c.703-.294 1.278-.762 1.278-1.04 0-.685-1.89-2.08-4.332-3.198-2.624-1.202-3.488-.8-1.984.926.406.466 1.136 1.522 1.62 2.347.968 1.644 1.46 1.783 3.418.965z" fill="#bba971"/></svg>