<svg xmlns="http://www.w3.org/2000/svg" viewBox="0 0 75.21803 74.647577" height="282.133" width="284.289"><path d="M31.111 74.299c-.064-.192-1.03-.48-2.145-.638-1.115-.16-2.485-.528-3.044-.82-.559-.292-1.34-.532-1.737-.533-.396-.001-.91-.228-1.142-.504-.232-.276-.62-.502-.861-.502s-1.175-.38-2.076-.845c-4.25-2.196-8.723-5.87-11.709-9.615-1.354-1.698-2.648-3.39-2.875-3.757-.955-1.543-2.127-3.933-2.127-4.336 0-.238-.213-.607-.473-.82-.26-.214-.578-.947-.708-1.63-.13-.684-.384-1.421-.566-1.639-.182-.217-.467-1.344-.633-2.504-.166-1.16-.46-2.16-.655-2.225-.46-.151-.49-13.107-.03-13.107.178 0 .41-.564.517-1.254.357-2.331 1.825-6.573 2.922-8.447.161-.276.528-.954.815-1.506.932-1.79 2.321-3.887 3.545-5.352.892-1.068 5.71-5.79 6.489-6.362 2.744-2.012 7.13-4.478 8.001-4.5.233-.006.424-.154.424-.33 0-.175.571-.418 1.27-.54.699-.12 1.586-.414 1.972-.652.386-.238 1.58-.54 2.652-.673 1.155-.143 2.024-.429 2.13-.7.262-.677 12.822-.677 13.085 0 .105.271.974.557 2.13.7 1.072.132 2.265.435 2.651.673.386.238 1.273.532 1.972.653.699.12 1.27.352 1.27.513 0 .16.447.39.993.508s1.175.431 1.397.695c.222.265.609.48.86.48.373 0 3.02 1.626 5.175 3.179.76.547 5.583 5.271 6.489 6.356 1.224 1.465 2.613 3.562 3.545 5.352.287.552.654 1.23.815 1.506 1.097 1.874 2.565 6.116 2.922 8.447.106.69.339 1.254.516 1.254.46 0 .431 12.956-.03 13.107-.194.064-.488 1.065-.654 2.225-.166 1.16-.451 2.287-.633 2.504-.182.218-.437.955-.566 1.639-.13.683-.448 1.416-.708 1.63-.26.213-.473.582-.473.82 0 .239-.385 1.161-.856 2.05-2.224 4.197-5.944 8.615-9.736 11.563-1.72 1.337-3.432 2.615-3.805 2.84-1.562.942-3.982 2.1-4.39 2.1-.241 0-.629.226-.86.502-.232.276-.747.503-1.143.504-.396 0-1.178.24-1.737.533-.559.292-1.929.66-3.044.82-1.115.159-2.08.446-2.145.638-.077.225-2.372.349-6.498.349s-6.421-.124-6.498-.35zm13.273-1.491c.792-.276 1.84-.507 2.33-.513.488-.007 1.498-.303 2.243-.658.746-.356 1.56-.652 1.811-.658.41-.01 1.705-.597 3.101-1.404.28-.161.966-.518 1.525-.793 4.89-2.407 11.476-8.9 13.9-13.704a45.1 45.1 0 0 1 .792-1.506c.903-1.586 1.4-2.665 1.41-3.062.006-.248.306-1.053.666-1.789.36-.736.66-1.728.666-2.204.006-.477.239-1.606.516-2.51.706-2.298.709-11.21.004-13.183-.28-.782-.514-1.817-.52-2.3-.006-.483-.306-1.48-.666-2.216-.36-.736-.66-1.54-.666-1.788-.011-.45-.214-.895-1.695-3.732-2.096-4.015-5.29-7.932-9.002-11.042-1.49-1.248-5.881-4.11-6.93-4.517-.28-.108-1.072-.49-1.76-.85-.69-.358-1.537-.652-1.884-.652-.346 0-.926-.221-1.288-.491-.361-.27-1.038-.5-1.504-.51-.466-.01-1.98-.316-3.365-.68-3.476-.912-9.442-.912-12.918 0-1.385.364-2.9.67-3.365.68-.466.01-1.143.24-1.504.51-.362.27-.942.491-1.288.491-.347 0-1.194.294-1.883.653-.69.358-1.482.74-1.761.849-1.049.406-5.44 3.269-6.93 4.517-1.217 1.02-3.38 3.159-4.762 4.71-1.732 1.946-4.907 6.961-4.907 7.752 0 .278-.229.693-.508.922-.28.229-.514.737-.52 1.128-.006.391-.306 1.314-.666 2.05-.36.736-.66 1.733-.666 2.216-.006.483-.24 1.518-.52 2.3-.705 1.973-.702 10.885.004 13.184.277.903.51 2.032.516 2.509.006.476.306 1.468.666 2.204.36.736.66 1.541.666 1.789.01.397.507 1.476 1.41 3.062.157.276.513.954.792 1.506 2.424 4.804 9.01 11.297 13.9 13.704a34.06 34.06 0 0 1 1.525.793c1.396.807 2.692 1.394 3.1 1.404.252.007 1.066.302 1.812.658.745.355 1.812.663 2.371.683.559.02 1.55.24 2.202.488 1.754.667 11.636.667 13.55 0zM34.73 54.66c-.187-.14-.695-.909-1.13-1.708-.602-1.105-.775-1.908-.722-3.344.108-2.93.091-2.97-1.687-4.119-4.295-2.777-6.337-8.628-4.537-13 .732-1.779 2.535-4.647 2.932-4.665.152-.007.797-.403 1.432-.882 1.075-.81 6.031-2.582 6.347-2.27.078.077 1.008.363 2.067.635 3.885 1 6.973 3.982 8.14 7.86.68 2.265.68 3.752-.004 6.042-.488 1.636-2.544 5.003-3.215 5.267-.146.058-.961.63-1.811 1.27l-1.545 1.165-.015 2.577c-.012 2.057-.172 2.848-.791 3.916-.768 1.323-.802 1.339-2.95 1.424-1.195.048-2.325-.028-2.511-.168zm3.666-2.792c1.504-2.269.998-3.315-1.604-3.315-1.489 0-2.64 1.357-1.945 2.292.226.303.673.965.993 1.47.809 1.272 1.496 1.152 2.556-.447zm1.426-6.242c.793-.69 2.041-1.648 2.774-2.13 2.15-1.413 3.244-3.619 3.419-6.89.133-2.494.06-2.912-.779-4.516-1.8-3.44-4.048-4.935-7.813-5.195-2.083-.145-2.602-.057-4.065.681-1.808.914-3.663 2.713-4.726 4.585-1.019 1.795-.934 5.99.164 8.135.858 1.675 3.382 4.243 4.17 4.243.25 0 .926.527 1.503 1.17.887.99 1.271 1.172 2.48 1.172 1.172 0 1.693-.228 2.873-1.255zM29.48 35.257c.003-3.22 2.871-6.272 6.532-6.95.987-.183 1.296-.118 1.462.31.32.822-.423 1.46-2.002 1.72-1.822.3-3.827 2.267-4.159 4.081-.302 1.653-.729 2.428-1.338 2.428-.366 0-.496-.416-.495-1.59zm-3.502 12.405c-.783-.773 1.23-3.412 2.295-3.009.818.31.632.995-.589 2.163-1.174 1.124-1.34 1.207-1.706.846zm20.333-.715c-1.153-1.189-1.243-2.501-.16-2.347.88.125 2.345 2.108 2.074 2.805-.284.729-.908.58-1.914-.458zM21.47 36.678c-.383-.985.15-1.505 1.54-1.505 1.486 0 1.877.338 1.555 1.341-.166.518-.514.666-1.557.666-.881 0-1.41-.172-1.538-.502zm28.117 0c-.386-.993.149-1.505 1.571-1.505 1.502 0 2.079.644 1.352 1.51-.554.658-2.667.655-2.923-.004zm-22.925-9.803c-1.599-1.648-.967-3.033.764-1.677 1.148.9 1.43 1.414 1.158 2.113-.291.75-.906.61-1.922-.436zm18.963.715c-.487-.481-.18-1.368.795-2.29.938-.887 1.066-.922 1.565-.43.5.494.464.636-.428 1.74-.946 1.171-1.47 1.437-1.932.98zm-9.174-4.203c-.75-1.131-.325-3.1.67-3.1.523 0 .677.27.756 1.337.058.772-.102 1.611-.377 1.982-.462.624-.494.617-1.05-.22z" fill="#bbaa73"/></svg>