<svg xmlns="http://www.w3.org/2000/svg" viewBox="0 0 75.474967 75.153675" height="284.045" width="285.26"><path d="M31.1 74.774c-.066-.202-1.102-.51-2.302-.682-1.2-.173-2.366-.466-2.591-.65-.226-.185-.895-.441-1.489-.57-.593-.13-2.23-.858-3.635-1.62-1.406-.76-2.942-1.556-3.414-1.767-.472-.212-.94-.494-1.039-.627-.099-.134-.725-.63-1.391-1.101C8.374 62.892 2.136 53.436 1.032 46.22c-.162-1.063-.46-1.99-.66-2.058-.472-.16-.507-13.008-.036-13.176.181-.065.476-.991.656-2.058.423-2.508 1.631-5.914 2.878-8.114.166-.291.47-.966.676-1.5.206-.533.505-.97.664-.97.159 0 .396-.345.527-.766.132-.422.375-.938.54-1.147 3.589-4.523 5.114-6.113 8.08-8.426 3.287-2.562 3.573-2.748 6.074-3.956C24.848 1.916 26.19 1.432 29 .956c1.19-.202 2.164-.5 2.164-.662 0-.161 2.96-.294 6.578-.294 3.814 0 6.577.138 6.577.327 0 .18.896.435 1.99.567 1.096.131 2.336.46 2.758.73.422.271 1.084.493 1.473.493.388 0 1.287.317 1.997.705.71.388 1.476.706 1.701.706.225 0 .461.119.524.264.064.146 1.004.738 2.089 1.317 3.19 1.702 7.707 5.59 10.156 8.742 2.446 3.149 5.007 7.306 5.007 8.128 0 .282.217.696.483.92.266.226.591 1 .724 1.72.132.72.387 1.492.567 1.714.18.222.476 1.333.657 2.468.182 1.135.488 2.118.68 2.183.22.075.351 2.536.351 6.587 0 4.05-.131 6.512-.35 6.586-.193.066-.5 1.048-.68 2.184-.182 1.135-.478 2.245-.658 2.468-.18.222-.435.993-.567 1.714-.133.72-.458 1.494-.724 1.719-.266.224-.483.697-.483 1.05 0 .353-.158.741-.351.863-.194.121-.58.726-.859 1.343-1.786 3.955-7.192 10.049-11.426 12.882-4.408 2.95-9.398 5.148-12.975 5.716-1.044.166-1.953.469-2.02.674-.166.509-13.115.513-13.282.004zm12.85-1.384c.343-.188 1.463-.489 2.487-.669 1.916-.338 3.509-.837 5.324-1.67a88.477 88.477 0 0 1 1.904-.844c.476-.202 1.333-.682 1.904-1.067.571-.384 1.467-.874 1.99-1.087.524-.214.953-.521.953-.683 0-.162.329-.401.73-.531 1.112-.36 7.273-6.763 8.814-9.16 1.43-2.224 3.602-6.454 3.622-7.055.007-.194.313-.988.681-1.764.368-.776.674-1.82.68-2.319.007-.499.254-1.63.55-2.513 1.064-3.183.14-16.297-1.25-17.728-.18-.185-.326-.571-.326-.86 0-.503-1.096-3.18-1.75-4.273a33.098 33.098 0 0 1-.85-1.588c-1.217-2.412-1.338-2.573-4.84-6.414-2.18-2.392-5.429-5.23-7.274-6.354-1.682-1.025-6.298-3.283-6.709-3.283-.25 0-.866-.22-1.372-.488-.505-.269-1.853-.68-2.996-.914-1.142-.234-2.7-.563-3.462-.731-2.639-.583-8.851-.39-11.62.36-1.415.384-2.963.707-3.439.717-.476.011-1.168.253-1.537.538-.37.285-.942.518-1.271.518-.51 0-4.42 1.916-6.712 3.29C14.74 8.88 9.69 13.764 7.361 17.285c-1.528 2.31-3.872 7.006-3.884 7.782-.005.302-.238.858-.517 1.235-.28.376-.513 1.172-.52 1.768-.005.596-.252 1.806-.547 2.688-.423 1.266-.506 2.783-.396 7.206.14 5.613.565 8.614 1.481 10.482.27.55.49 1.205.49 1.457 0 .542 1.436 3.662 2.604 5.659.454.776.93 1.614 1.056 1.864.923 1.809 7.372 8.368 9.841 10.01a44.368 44.368 0 0 0 3.809 2.223c1.047.527 2.317 1.182 2.822 1.456.506.274 1.207.503 1.558.51.352.005.942.243 1.311.528.37.285 1.227.525 1.904.534.678.01 1.7.234 2.27.5 1.239.578 12.31.746 13.307.202zm-9.478-20.2c-.297-.431-.54-1.115-.54-1.52 0-.523-.413-.921-1.432-1.38-1.363-.612-1.483-.614-2.445-.035-1.4.843-2.317.505-4.204-1.55-1.665-1.814-1.887-2.547-1.224-4.032.259-.578.284-1.319.076-2.221-.25-1.086-.584-1.494-1.686-2.06-.756-.388-1.488-.864-1.628-1.058-.331-.46-.331-5.538 0-5.997.14-.195.872-.67 1.628-1.059 1.102-.566 1.436-.974 1.686-2.06.208-.902.183-1.643-.076-2.22-.663-1.485-.44-2.218 1.224-4.032 1.887-2.056 2.804-2.394 4.204-1.551.962.579 1.082.577 2.445-.035 1.02-.459 1.433-.857 1.433-1.38 0-.405.242-1.089.539-1.52.478-.696.84-.784 3.246-.784 2.946 0 3.336.213 3.688 2.01.16.81.537 1.207 1.608 1.688 1.304.587 1.466.59 2.358.054 1.435-.864 1.933-.727 3.786 1.038 1.932 1.842 2.432 3.26 1.604 4.547-.865 1.345-.034 3.29 1.898 4.442l1.525.908v5.904l-1.525.909c-1.932 1.151-2.763 3.096-1.898 4.442.828 1.287.328 2.704-1.604 4.546-1.853 1.766-2.351 1.903-3.786 1.039-.892-.537-1.054-.533-2.358.053-1.071.482-1.448.878-1.608 1.689-.352 1.797-.742 2.009-3.688 2.009-2.405 0-2.768-.088-3.246-.784zm5.556-2.115c.274-1.32.455-1.53 1.593-1.855.706-.202 1.477-.564 1.713-.805.589-.6 1.846-.551 2.369.091.659.809 1.413.64 2.666-.598 1.224-1.209 1.462-2.397.623-3.106-.65-.55-.654-1.084-.021-2.353.274-.55.683-1.517.909-2.15.282-.79.696-1.214 1.32-1.352 1.767-.392 1.773-.4 1.773-2.612 0-2.211-.006-2.22-1.774-2.612-.623-.138-1.037-.562-1.32-1.352-.225-.633-.634-1.6-.908-2.15-.633-1.269-.629-1.803.02-2.353.824-.696.61-1.811-.586-3.07-1.204-1.265-2.03-1.459-2.702-.634-.523.642-1.78.69-2.369.091-.236-.24-1.007-.603-1.713-.804-1.141-.327-1.319-.534-1.596-1.87l-.312-1.505-2.111.104c-2.111.104-2.112.104-2.285 1.302-.095.659-.406 1.321-.692 1.471-3.546 1.865-4.627 2.128-4.972 1.211-.32-.849-1.312-.615-2.541.599-1.223 1.208-1.461 2.396-.622 3.105.285.242.519.718.519 1.059 0 .34-.234.817-.52 1.058-.285.242-.519.795-.519 1.23 0 1.143-1.246 2.587-2.344 2.716-.92.108-.944.17-.944 2.404 0 2.235.024 2.296.944 2.404 1.098.129 2.344 1.573 2.344 2.716 0 .435.234.989.52 1.23.285.242.519.718.519 1.058 0 .341-.234.817-.52 1.059-.822.696-.61 1.811.588 3.07 1.178 1.238 2.25 1.502 2.576.634.346-.917 1.413-.657 4.972 1.21.286.15.566.654.623 1.119.2 1.638.327 1.728 2.433 1.728h2.038zm-5.576-6.253c-1.711-.786-2.925-1.924-4.196-3.938-.878-1.39-.979-1.859-.979-4.549 0-2.69.1-3.158.979-4.548 1.302-2.063 2.5-3.164 4.311-3.963 3-1.322 6.768-.542 8.993 1.862 1.97 2.127 2.49 3.516 2.49 6.65 0 3.132-.52 4.52-2.49 6.649-2.22 2.398-6.157 3.192-9.108 1.837zm4.83-1.118c.18-.172.647-.318 1.038-.324.783-.011 2.363-1.38 3.565-3.087.654-.93.78-1.565.78-3.958 0-2.393-.126-3.028-.78-3.957-1.111-1.58-2.763-3.076-3.408-3.088-.304-.006-1.044-.26-1.645-.565-.993-.505-1.19-.505-2.183 0-.6.305-1.31.555-1.578.555-.602 0-3.216 2.104-3.216 2.588 0 .195-.272.662-.605 1.037-.468.527-.606 1.308-.606 3.43s.138 2.904.606 3.43c.333.376.605.842.605 1.037 0 .49 2.617 2.589 3.23 2.589.274 0 .946.236 1.491.524.964.51 2.035.426 2.705-.211zm-3.792-1.353c-.761-.351-1.89-1.228-2.51-1.95-1.063-1.24-1.125-1.462-1.125-4.071 0-2.666.042-2.807 1.234-4.16.683-.775 1.931-1.672 2.795-2.008 2.215-.862 4.27-.247 6.27 1.877 1.47 1.56 1.472 1.565 1.472 4.266 0 2.632-.035 2.743-1.298 4.154-1.324 1.479-3.392 2.599-4.716 2.554-.405-.014-1.36-.312-2.122-.662zm5.604-2.614c1.033-1.148 1.147-1.486 1.147-3.402 0-1.93-.11-2.249-1.185-3.445-1.119-1.244-1.302-1.317-3.283-1.317-1.963 0-2.182.085-3.396 1.323-1.21 1.232-1.298 1.466-1.298 3.422 0 1.847.124 2.234 1.032 3.212 1.376 1.481 2.096 1.762 4.127 1.61 1.443-.108 1.89-.327 2.856-1.403z" fill="#bbaa72"/></svg>