<svg xmlns="http://www.w3.org/2000/svg" viewBox="0 0 75.314415 75.317223" height="284.664" width="284.653"><path d="M31.114 75.008c-.104-.17-1.037-.413-2.074-.537-1.037-.124-2.213-.436-2.613-.693-.4-.256-.976-.466-1.279-.466-.499 0-2.837-.98-4.075-1.708a41.05 41.05 0 0 0-1.479-.806c-1.24-.65-3.287-1.944-4.602-2.91-3.063-2.252-8.63-8.452-9.18-10.223-.128-.414-.357-.753-.508-.753-.15 0-.434-.414-.63-.92-.196-.507-.495-1.147-.664-1.423-.744-1.215-1.674-3.417-1.674-3.962 0-.328-.216-.888-.479-1.245-.263-.357-.58-1.528-.703-2.602-.133-1.162-.406-2.024-.672-2.128-.588-.23-.665-13.36-.08-13.56.202-.068.505-1.015.673-2.103.167-1.089.435-2.14.594-2.334.159-.196.466-1.069.681-1.94.216-.873.511-1.586.656-1.586.145 0 .359-.442.475-.981.117-.54.424-1.16.684-1.38.26-.22.472-.658.472-.975 0-.317.296-.85.657-1.182.362-.334.658-.75.658-.925 0-.378 2.906-4.222 4.577-6.054 2.247-2.463 6.864-5.899 9.312-6.93.497-.21.904-.517.904-.683 0-.166.187-.302.415-.302.23 0 .968-.301 1.643-.67.675-.367 1.486-.67 1.803-.67.317-.002.999-.227 1.515-.501.516-.274 1.847-.647 2.957-.83 1.11-.181 2.068-.483 2.13-.67.163-.5 13.111-.46 13.275.04.069.21 1.054.51 2.19.669 1.135.158 2.381.513 2.77.79.388.277.982.503 1.321.503.339 0 1.008.209 1.488.463.48.255 1.729.895 2.775 1.423 1.046.527 2.156 1.112 2.466 1.298 1.107.666 2.544 1.644 3.028 2.063 4.455 3.843 6.712 6.266 8.755 9.4 1.547 2.373 2.751 4.668 2.751 5.244 0 .244.218.627.484.853.267.225.584.959.705 1.63.12.672.42 1.519.666 1.882.245.363.447 1.191.448 1.84.001.65.223 1.613.493 2.14.386.754.491 2.34.491 7.419 0 3.787-.129 6.506-.312 6.572-.173.06-.457.94-.634 1.952-.449 2.58-1.398 5.272-2.716 7.698-.15.276-.494.953-.764 1.506-.977 1.996-3.726 5.789-5.903 8.143-1.523 1.647-6.55 5.746-7.047 5.746-.18 0-.524.194-.763.432-.593.589-3.146 1.91-3.691 1.91-.244 0-.624.223-.845.494-.221.271-.942.592-1.602.713-.66.12-1.57.417-2.021.66-.452.242-1.673.535-2.712.65-1.04.115-1.89.35-1.89.52 0 .411-13.05.41-13.3 0zm13.7-1.491c.672-.297 1.716-.54 2.32-.54.604 0 1.386-.221 1.737-.491.35-.27.911-.497 1.245-.503.726-.012 6.094-2.601 6.724-3.242.243-.248.586-.45.764-.45.571 0 4.661-3.513 6.862-5.894 2.343-2.535 4.894-6.184 5.941-8.497.209-.46.584-1.237.835-1.725.251-.489.461-1.091.468-1.339.006-.248.296-1.053.646-1.789.35-.736.64-1.734.646-2.217.006-.483.248-1.537.537-2.343.756-2.107.766-10.8.015-13.323-.297-1-.546-2.204-.552-2.677-.006-.473-.297-1.462-.646-2.199-.35-.736-.64-1.492-.646-1.68-.02-.582-2.426-5.251-3.755-7.283-1.526-2.333-7.837-8.942-8.54-8.942-.096 0-.886-.488-1.754-1.085-1.91-1.313-6.323-3.6-6.946-3.6-.247 0-.915-.221-1.485-.49C45.804 1.588 35.473.78 31.429 1.814c-1.085.278-2.557.601-3.271.72-.714.118-1.598.428-1.963.689-.366.26-.943.474-1.281.474-.34 0-1.009.225-1.489.5-.48.275-1.242.654-1.694.842-.452.188-1.266.638-1.808 1.001-.543.363-1.341.817-1.775 1.01-1.17.52-4.547 3.356-6.637 5.574-1.953 2.073-4.244 4.898-4.244 5.233 0 .111-.383.773-.85 1.472-1.013 1.51-2.766 5.238-2.766 5.877 0 .249-.218.745-.483 1.102-.266.357-.487 1.027-.493 1.488-.006.46-.306 1.89-.668 3.178-.825 2.938-.939 10.65-.189 12.815.258.744.574 2.081.703 2.97.129.89.435 1.916.682 2.279.246.363.448.935.448 1.272 0 .523.506 1.697 1.694 3.925.148.276.49.953.76 1.506 1.178 2.408 5.085 7.234 7.332 9.056.855.694 1.703 1.427 1.884 1.63.501.56 2.902 2.142 4.602 3.032a63.1 63.1 0 0 1 1.48.796c2.061 1.174 5.223 2.347 7.392 2.742.902.165 2.011.447 2.465.628 1.385.551 2.606.637 7.565.532 3.48-.074 5.096-.246 5.989-.64zM28.986 49.298c-.183-.69-.487-2.385-.677-3.765-.19-1.38-.476-2.962-.638-3.514a33.543 33.543 0 0 1-.484-1.891c-.12-.551-.536-1.029-1.098-1.26-.499-.206-1.942-.964-3.208-1.684a111.522 111.522 0 0 0-4.183-2.253c-1.95-.979-2.41-1.816-1.323-2.404.526-.284 2.389-.708 8.3-1.886 1.176-.235 2.803-.586 3.617-.782 1.364-.327 4.531-1.015 10.355-2.247 1.265-.268 3.04-.647 3.945-.841a172.32 172.32 0 0 1 3.287-.667c.904-.173 2.694-.565 3.979-.872 3.784-.906 3.921-.681 2.277 3.734-.48 1.288-.997 2.836-1.148 3.44-.152.603-.422 1.281-.6 1.506-.177.225-.433.936-.567 1.58-.135.645-.448 1.469-.696 1.832-.248.363-.452.965-.453 1.339 0 .373-.218 1.1-.482 1.615a14.35 14.35 0 0 0-.8 2.009c-.481 1.614-1.324 3.999-1.679 4.752-.173.368-.502 1.272-.73 2.008-.613 1.97-1.283 1.882-4.983-.653-2.976-2.041-4.502-2.623-4.948-1.887-.339.558-5.7 4.046-6.22 4.046-.313 0-.64-.487-.843-1.255zm16.054-2.106c.353-.744.744-1.836.868-2.427.124-.59.37-1.257.548-1.482.178-.225.448-.902.6-1.506.151-.603.665-2.151 1.141-3.44.476-1.288 1.008-2.825 1.182-3.414.174-.588.532-1.492.796-2.008.264-.515.481-1.14.482-1.387.002-.248.246-.871.545-1.385.298-.515.447-1.187.331-1.495-.252-.669.202-.98-9.914 6.813-3.92 3.02-7.21 5.708-7.31 5.973-.166.443 1.357 2.049 1.972 2.079.137.006.986.539 1.887 1.183.9.644 1.71 1.171 1.8 1.171.091 0 1.017.603 2.059 1.339 1.041.736 2 1.338 2.132 1.339.132 0 .528-.609.881-1.353zm-11.385-.655c.46-.368.997-.67 1.195-.67.542 0 .43-1.038-.185-1.73-.3-.337-.895-.612-1.323-.612-.81 0-1.127.523-1.569 2.593-.2.936-.143 1.088.407 1.088.352 0 1.015-.301 1.475-.67zm-2.894-2.24c.313-1.696 1.352-3.686 2.153-4.123.364-.198 2.176-1.536 4.026-2.972 1.85-1.437 3.697-2.791 4.104-3.01.407-.218.74-.542.74-.72 0-.416-1.744-.42-2.154-.005-.326.331-1.351.906-7.05 3.951-3.64 1.945-4.053 2.286-3.752 3.095.103.276.335 1.405.514 2.51.18 1.104.39 2.206.465 2.447.23.735.712.143.954-1.173zm.878-8.108c1.692-.905 5.48-2.883 8.419-4.395 6.54-3.366 7.12-4.326 1.89-3.125a193.03 193.03 0 0 1-4.438.956 122.64 122.64 0 0 0-3.616.78c-3.074.734-6.133 1.375-7.56 1.584a20.19 20.19 0 0 0-2.889.688c-.774.26-1.847.472-2.383.472-1.166 0-1.255.467-.22 1.158 1.816 1.212 6.374 3.49 7.017 3.508.387.011 2.088-.72 3.78-1.626zM43.1 32.48c0-.184-.214-.335-.474-.335s-.565.151-.677.335c-.112.184.101.335.474.335.372 0 .677-.15.677-.335z" fill="#bbaa71"/></svg>