<svg xmlns="http://www.w3.org/2000/svg" viewBox="0 0 75.051802 75.147539" height="284.022" width="283.66"><path d="M31.207 74.733c-.074-.223-1.123-.54-2.33-.705-1.209-.165-2.397-.5-2.64-.745-.243-.245-.804-.446-1.245-.446-.442 0-1.136-.253-1.542-.563-.407-.31-1.018-.568-1.359-.575-.34-.007-.833-.27-1.094-.587-.26-.316-.697-.575-.971-.575-.71 0-4.781-2.786-7.098-4.858-3.495-3.125-6.831-7.45-8.672-11.241-.46-.949-1.08-2.183-1.376-2.743-.296-.56-.538-1.273-.538-1.585 0-.312-.256-1.062-.569-1.666-.312-.604-.57-1.646-.57-2.316-.002-.67-.26-1.477-.574-1.794-.839-.844-.839-12.681 0-13.525.314-.317.572-1.124.573-1.794.002-.67.234-1.665.518-2.212.283-.547.632-1.625.776-2.396.144-.77.406-1.402.584-1.402.177 0 .43-.435.563-.967.52-2.085 5.662-9.557 7.944-11.543 3.88-3.377 7.919-6.035 10.933-7.197a9.578 9.578 0 0 0 1.143-.555c1.04-.61 3.207-1.278 5.33-1.645 1.151-.2 2.15-.526 2.22-.727.181-.52 12.907-.481 13.079.04.074.222 1.073.548 2.22.724 2.078.319 4.236.97 5.324 1.608.314.184.828.44 1.142.57 5.446 2.245 10.682 6.402 14.59 11.58 1.705 2.262 4.056 6.002 4.078 6.489.008.155.344.972.749 1.815s.741 1.825.749 2.182c.007.356.174.748.371.87.197.124.463 1.04.59 2.036.128.996.395 2.111.594 2.477.47.868.47 12.752 0 13.619-.199.366-.466 1.48-.593 2.477-.128.997-.394 1.912-.59 2.035-.198.123-.365.515-.372.872-.008.356-.344 1.338-.749 2.181s-.741 1.749-.749 2.013c-.007.263-.146.479-.31.479-.163 0-.5.474-.747 1.054-2.007 4.697-9.19 12.07-14.26 14.637-.9.456-1.895.974-2.209 1.151-1.951 1.102-5.415 2.317-7.802 2.738-1.045.185-1.959.512-2.03.727-.18.545-12.901.533-13.081-.012zm15.109-1.942c1.256-.297 2.658-.753 3.115-1.013.458-.261 1.076-.474 1.375-.474.666 0 4.301-1.924 7.122-3.768 1.76-1.152 8.022-7.13 9.342-8.92.929-1.26 3.221-5.27 3.221-5.635 0-.219.24-.886.534-1.483 1.139-2.316 1.75-4.023 1.75-4.883 0-.494.258-1.63.572-2.527.393-1.122.57-3.152.57-6.516s-.177-5.395-.57-6.517c-.314-.896-.571-2.033-.571-2.527 0-.86-.612-2.567-1.751-4.883-.293-.597-.54-1.287-.547-1.533-.02-.683-2.726-5.014-4.4-7.043-1.736-2.104-4.376-4.747-5.96-5.965a70.16 70.16 0 0 1-1.573-1.24c-1.188-.992-7.815-4.408-8.551-4.408-.249 0-.75-.159-1.114-.353C46.303 1.73 36.938.737 33.371 1.462c-1.047.212-2.932.59-4.188.838-1.256.248-2.447.61-2.646.804a1.455 1.455 0 0 1-.878.352c-.283 0-1.234.32-2.113.71l-2.168.963c-.314.139-1.085.593-1.713 1.01-.628.417-1.43.89-1.781 1.05-2.319 1.059-8.19 6.942-10.429 10.45-1.455 2.28-3.59 6.575-3.59 7.224 0 .284-.237.974-.527 1.533-1.047 2.023-1.547 5.634-1.547 11.176 0 5.541.5 9.152 1.547 11.175.29.56.527 1.247.527 1.527 0 1.378 3.617 7.618 6.02 10.386 1.69 1.945 5.667 5.692 7.136 6.72 1.57 1.102 6.745 3.716 8.164 4.126.524.151 1.124.407 1.333.568.21.162 1.246.41 2.303.554 1.057.143 2.17.423 2.474.622.808.528 12.327.176 15.02-.46zM31 47.902c-8.083-7.592-9.623-10.045-9.623-15.33 0-4.276 2.005-7.833 5.41-9.6 2.804-1.455 7.255-.647 9.41 1.708 1.073 1.173 2.131 1.3 2.653.318.202-.38 1.217-1.157 2.254-1.725 3.568-1.955 7.752-1.144 10.446 2.025 3.502 4.119 3.447 10.508-.133 15.526C50.002 42.81 38.37 53.671 37.66 53.671c-.284 0-3.28-2.596-6.658-5.769zm9.543 1.265c9.975-9.45 10.836-10.509 11.687-14.366.91-4.13-1.07-8.697-4.374-10.088-1.562-.657-3.914-.722-5.42-.15-1.224.464-3.546 2.592-3.546 3.25 0 .48-1.441 1.93-1.664 1.675-.075-.087-.441-.814-.813-1.617-.371-.802-1.28-1.924-2.02-2.491-1.167-.897-1.7-1.033-4.04-1.033-2.372 0-2.862.13-4.102 1.085-4.334 3.338-4.31 10.27.051 15.398 1.967 2.313 10.843 10.541 11.37 10.541.3 0 1.591-.992 2.87-2.204zM24.992 32.578c-.317-1.003 1.094-3.96 2.372-4.971 1.307-1.035 3.822-1.78 4.318-1.28.65.654-.018 1.575-1.322 1.821-1.52.287-2.622 1.422-3.472 3.578-.69 1.747-1.5 2.111-1.896.852z" fill="#bbaa72"/></svg>