<svg xmlns="http://www.w3.org/2000/svg" viewBox="0 0 74.851063 75.277667" height="284.514" width="282.902"><path d="M30.866 74.892c-.065-.2-1.008-.49-2.096-.645-1.089-.154-2.295-.494-2.681-.756-.386-.262-.999-.476-1.361-.476s-1.028-.207-1.48-.459a92.334 92.334 0 0 0-2.83-1.456c-4.32-2.144-8.54-5.449-11.194-8.766-.865-1.081-1.66-2.038-1.767-2.126-.106-.088-.82-1.169-1.585-2.402-1.938-3.118-2.135-3.457-2.325-4.002-.093-.264-.44-1.013-.772-1.664-.331-.651-.603-1.448-.603-1.77 0-.322-.202-.885-.45-1.25-.247-.366-.593-1.586-.768-2.712-.175-1.125-.46-2.095-.632-2.154-.43-.148-.43-13.09 0-13.238.173-.06.459-1.039.636-2.177.177-1.137.443-2.219.59-2.404.148-.184.434-1.013.636-1.842.201-.829.56-1.673.796-1.876.236-.203.43-.63.43-.947 0-.318.175-.769.39-1.002.214-.232.569-.783.788-1.223 1.118-2.25 1.502-2.872 2.864-4.643 2.552-3.319 7.9-8.244 10.182-9.377a24.06 24.06 0 0 0 1.314-.706l1.083-.643c.297-.177.889-.466 1.314-.643a16.271 16.271 0 0 0 1.594-.8c.451-.263 1.078-.479 1.392-.48.313 0 .988-.232 1.498-.513.51-.28 1.83-.63 2.93-.776 1.102-.146 2.053-.42 2.114-.608.153-.475 12.952-.475 13.105 0 .06.188 1.012.462 2.113.608 1.102.146 2.42.495 2.931.776.51.281 1.185.512 1.498.513.314.001.94.217 1.392.48a16.27 16.27 0 0 0 1.594.8c.425.177 1.017.466 1.314.643l1.083.643c.297.177.889.5 1.314.715 2.354 1.196 7.633 6.053 10.182 9.368 1.362 1.77 1.746 2.394 2.864 4.643.22.44.574.99.789 1.223.214.233.39.684.39 1.002 0 .318.193.744.43.947.236.203.594 1.047.795 1.876.202.829.488 1.658.636 1.842.148.185.413 1.267.59 2.404.177 1.138.463 2.118.636 2.177.43.148.43 13.09 0 13.238-.173.06-.457 1.029-.632 2.154-.175 1.126-.52 2.346-.768 2.711-.248.366-.45.929-.45 1.251 0 .5-.572 1.842-1.601 3.754a11.83 11.83 0 0 0-.453.96c-.234.579-2.958 4.897-3.231 5.124-.106.088-.901 1.045-1.767 2.126-2.655 3.317-6.875 6.622-11.193 8.766a92.338 92.338 0 0 0-2.831 1.456c-.452.252-1.118.459-1.48.459-.362 0-.975.214-1.36.476-.387.262-1.593.602-2.682.756-1.088.155-2.031.445-2.096.645-.165.514-12.954.514-13.12 0zm12.927-1.388c.6-.26 1.813-.569 2.696-.687.883-.118 1.88-.41 2.215-.649.336-.239.873-.434 1.195-.434.322 0 1.091-.265 1.71-.588.618-.324 1.814-.936 2.658-1.361 4.088-2.059 8.887-6.116 11.952-10.103.832-1.082 1.512-2.109 1.512-2.282 0-.174.202-.49.449-.701.532-.458 3.262-6.135 3.262-6.785 0-.247.19-.734.421-1.082.232-.347.52-1.327.641-2.179.121-.85.419-2.13.661-2.841.614-1.8.614-10.554 0-12.354-.242-.711-.535-1.99-.652-2.841-.116-.851-.394-1.851-.618-2.221-.225-.371-.502-1.194-.618-1.83-.115-.636-.394-1.315-.62-1.51-.227-.194-.5-.766-.607-1.27-.107-.504-.394-1.088-.638-1.298-.244-.21-.444-.503-.444-.652 0-.573-2.72-4.38-4.639-6.493-1.697-1.87-2.849-2.938-6.099-5.658-.208-.174-.695-.466-1.082-.648-.387-.183-1.26-.682-1.941-1.11-.68-.427-1.446-.862-1.701-.964a50.255 50.255 0 0 1-1.7-.768c-1.738-.814-3.178-1.317-4.794-1.674a55.58 55.58 0 0 1-2.965-.767c-1.915-.56-11.377-.643-12.709-.112-.479.19-1.656.48-2.616.642-.96.162-2.143.51-2.629.771-.485.262-1.133.478-1.44.479-.306.001-1.071.283-1.7.626-.63.344-1.353.707-1.608.807-.255.1-1.02.533-1.7.96-.681.428-1.554.927-1.942 1.11-.387.182-.874.474-1.082.648-3.25 2.72-4.401 3.788-6.1 5.658-1.919 2.113-4.638 5.92-4.638 6.493 0 .149-.2.443-.444.652-.244.21-.531.794-.638 1.298-.107.504-.38 1.076-.606 1.27-.227.195-.506.874-.621 1.51-.116.636-.393 1.459-.618 1.83-.224.37-.496 1.321-.604 2.114-.108.792-.396 2.017-.639 2.721-.619 1.796-.639 10.787-.027 12.58.242.712.54 1.991.66 2.842.122.852.41 1.832.642 2.18.232.347.421.834.421 1.081 0 .65 2.73 6.327 3.262 6.785.247.212.45.527.45.7 0 .174.68 1.201 1.51 2.283 3.066 3.987 7.865 8.044 11.953 10.103.844.425 2.04 1.037 2.659 1.36.618.324 1.387.59 1.709.59.322 0 .86.194 1.195.433.335.239 1.334.531 2.218.65.885.118 2.068.421 2.629.674 1.475.663 11.271.672 12.799.012zm-22.979-21.84c-.376-.079-1.037-.577-1.468-1.107l-.784-.964V39.094c0-10.188.02-10.523.651-11.355.358-.471 1.156-1.103 1.773-1.404.92-.448 1.156-.764 1.31-1.75.23-1.458.214-1.441 1.368-1.521 1.945-.136 2.346-.001 2.875.961.29.528.62.96.734.96.114.002.427-.681.697-1.518.269-.836.765-1.989 1.102-2.561l.613-1.04h15.457l.493.778c.27.428.772 1.544 1.114 2.48 1.046 2.866 1.46 3.145 4.677 3.145 2.727 0 2.773.013 3.812 1.088l1.051 1.089v21.186l-.902 1.045-.902 1.046-16.493.042c-9.07.023-16.8-.023-17.178-.101zm33.083-2.262c.722-.83.935-20.436.227-20.899-.255-.167-1.438-.33-2.628-.364a525.61 525.61 0 0 1-3.135-.096c-1.361-.05-1.817-.554-2.724-3.01-1.42-3.849-.771-3.567-8.211-3.567s-6.791-.282-8.212 3.567c-.436 1.182-1.007 2.333-1.268 2.557-.318.274-1.284.38-2.927.322-1.35-.048-2.936.079-3.527.28l-1.075.368v10.115c0 8.964.059 10.183.512 10.701.483.553 1.404.586 16.497.586 14.831 0 16.02-.04 16.471-.56zM33.87 47.453c-2.343-.798-5.379-4.064-6.149-6.616-1.298-4.302-.348-7.963 2.937-11.315 1.996-2.036 3.146-2.453 6.769-2.453 3.622 0 4.772.417 6.768 2.453 3.285 3.352 4.235 7.013 2.937 11.315-.809 2.68-3.81 5.83-6.331 6.645-2.116.684-4.87.673-6.93-.029zm6.22-1.486c1.877-.577 3.784-2.213 4.954-4.247.778-1.356.874-1.824.869-4.245-.007-3.187-.536-4.501-2.663-6.614a8.238 8.238 0 0 0-11.647 0c-2.127 2.113-2.656 3.427-2.663 6.614-.005 2.421.091 2.89.87 4.245 2.237 3.895 6.157 5.514 10.28 4.247zm-5.678-2.104c-2.462-1.295-3.789-3.59-3.789-6.554 0-7.41 9.752-9.604 13.039-2.934.5 1.015.607 1.731.515 3.428-.14 2.552-1.09 4.297-3.085 5.665-1.772 1.214-4.784 1.392-6.68.395zm5.334-1.547c1.466-.697 2.106-1.412 2.585-2.888.715-2.207.21-4.64-1.244-5.983-.923-.852-2.783-1.733-3.66-1.733-.878 0-2.738.88-3.661 1.733-1.895 1.75-2.092 5.608-.393 7.677.713.869 2.79 1.782 4.054 1.782.595 0 1.638-.265 2.319-.588zm9.852-8.51c-.354-.258-.823-.915-1.042-1.462-.351-.878-.326-1.093.217-1.853.988-1.383 2.027-1.77 3.288-1.225 1.14.493 2.064 1.613 2.064 2.5 0 .305-.452.992-1.005 1.529-1.119 1.086-2.46 1.28-3.522.51zm2.007-1.417c.625-.41.293-1.463-.498-1.58-.552-.082-.692.053-.692.667 0 1.14.39 1.438 1.19.913z" fill="#bbaa73"/></svg>