<svg xmlns="http://www.w3.org/2000/svg" viewBox="0 0 74.225964 75.03918" height="283.613" width="280.539"><path d="M30.528 74.543c-.204-.248-1.211-.556-2.239-.684-1.027-.129-2.147-.457-2.488-.73-.341-.272-.967-.495-1.39-.495-.422 0-1.15-.224-1.617-.496-.467-.273-1.64-.9-2.608-1.393-3.344-1.705-5.955-3.595-8.782-6.355-1.99-1.943-5.17-5.886-5.723-7.093-.129-.281-.577-1.125-.997-1.874-1.16-2.073-2.404-4.845-2.404-5.356 0-.252-.198-.76-.44-1.13-.242-.369-.544-1.48-.67-2.47-.128-.989-.433-2.013-.68-2.276-.653-.696-.653-12.626 0-13.322.247-.263.552-1.288.68-2.276.126-.99.428-2.101.67-2.47.242-.37.44-.879.44-1.13 0-.51 1.244-3.283 2.404-5.356.42-.75.868-1.593.997-1.874.552-1.207 3.734-5.15 5.723-7.093 2.827-2.76 5.438-4.65 8.782-6.355a68.088 68.088 0 0 0 2.608-1.393c.467-.273 1.195-.496 1.617-.496.423 0 1.049-.223 1.39-.496.341-.272 1.458-.6 2.48-.728 1.023-.127 2.056-.441 2.296-.697.63-.671 12.48-.674 13.11-.003.239.254 1.218.56 2.176.68.958.12 2.156.448 2.662.73.506.28 1.185.511 1.51.512.324.002.972.214 1.439.474.466.259 1.68.91 2.696 1.448 1.016.538 2.24 1.193 2.718 1.456 1.89 1.04 6.608 5.198 8.41 7.41 1.994 2.449 4.451 6.073 4.451 6.565 0 .158.207.47.46.694.252.224.549.845.66 1.382.11.536.407 1.158.66 1.381.252.224.459.702.459 1.063s.225 1.12.5 1.688c.275.567.633 1.901.795 2.964.163 1.063.441 1.984.62 2.047.202.073.323 2.505.323 6.534s-.12 6.462-.324 6.534c-.178.063-.456.984-.619 2.047-.162 1.063-.52 2.397-.795 2.964-.275.567-.5 1.327-.5 1.688s-.207.84-.46 1.063c-.252.223-.549.845-.66 1.381-.11.537-.407 1.158-.66 1.382-.252.223-.459.586-.459.806 0 .443-.116.62-2.828 4.288-2.649 3.583-3.684 4.685-6.605 7.034-2.593 2.086-2.858 2.258-6.146 3.997a205.93 205.93 0 0 0-2.696 1.448c-.467.26-1.115.473-1.44.474-.324 0-1.013.237-1.53.525-.517.287-1.806.649-2.863.803-1.058.154-1.977.454-2.044.668-.187.597-12.574.513-13.07-.09zm12.88-1.35c.682-.254 1.924-.57 2.76-.702.837-.133 1.916-.46 2.399-.728.483-.269 1.084-.49 1.336-.49.431-.003 2.798-1.053 3.858-1.713.264-.164 1.2-.71 2.079-1.212 1.935-1.106 6.282-4.697 7.87-6.501.634-.722 1.75-2.156 2.48-3.187.73-1.03 1.471-2.062 1.648-2.291.177-.23.466-.766.642-1.193.177-.427.75-1.616 1.275-2.644.524-1.027.954-2.077.954-2.333 0-.256.203-.872.452-1.37 1.011-2.022 1.602-5.679 1.711-10.593.091-4.117-.002-5.42-.576-8.009-.377-1.7-.889-3.499-1.137-3.996-.248-.498-.45-1.114-.45-1.37s-.43-1.306-.954-2.333c-.525-1.028-1.098-2.217-1.275-2.644-.176-.427-.465-.964-.642-1.193-.177-.23-.919-1.26-1.648-2.291-.73-1.031-1.846-2.465-2.48-3.187-1.588-1.804-5.935-5.395-7.87-6.501a99.445 99.445 0 0 1-2.079-1.213c-1.06-.66-3.427-1.71-3.858-1.712-.252 0-.842-.215-1.312-.476-.469-.261-1.476-.58-2.238-.71s-2.14-.462-3.062-.74C39.8.811 28.392 1.794 25.723 3.376c-.384.227-.937.414-1.23.414-.292 0-.913.212-1.38.47-.466.26-1.64.883-2.607 1.385-6.78 3.522-12.999 10.202-16.1 17.294-.466 1.066-.847 2.09-.847 2.273 0 .184-.204.769-.453 1.3-.249.53-.596 1.73-.77 2.668a64.091 64.091 0 0 1-.66 3.067c-.44 1.763-.44 8.803 0 10.566.187.75.484 2.13.66 3.067.174.937.521 2.138.77 2.669.25.53.453 1.115.453 1.299 0 .184.381 1.207.847 2.273 3.101 7.092 9.32 13.771 16.1 17.293.967.503 2.14 1.126 2.608 1.385.466.26 1.122.471 1.457.471.335 0 .889.226 1.23.5.341.276.98.516 1.42.535.44.018 1.735.314 2.878.657 2.666.8 11.381.951 13.31.231zm-8.931-20.565c-.379-.105-.544-.415-.48-.898.08-.596.337-.752 1.34-.811.683-.04 1.521-.343 1.863-.673.597-.575.645-.568 1.174.18.523.74.635.759 2.134.368 2.247-.584 2.672-.87 2.476-1.668-.194-.791.709-1.334 1.254-.753.47.502 1.843-.278 2.946-1.675.664-.841.808-1.3.65-2.065-.178-.869-.09-1.025.758-1.34 1.09-.405 1.229-.677 1.513-2.962.159-1.276.09-1.738-.308-2.09-.65-.575-.652-1.186-.006-1.757.394-.349.458-.795.289-2.002-.286-2.026-.635-2.674-1.514-2.807-.6-.09-.722-.325-.73-1.393-.009-1.045-.259-1.549-1.346-2.707-1.241-1.323-1.39-1.392-2.117-.976-.934.532-1.582.211-1.324-.657.222-.743-.088-.978-2.383-1.809-1.838-.665-2.075-.585-2.71.92-.093.223-.376.064-.69-.389-.392-.568-.854-.767-1.78-.767-1.462 0-2.022-.834-1.062-1.582.57-.445.566-.488-.126-1.176-.65-.644-.675-.786-.263-1.449.392-.631.809-.748 2.975-.835 3.057-.123 3.832.059 4.31 1.01.312.622.254.821-.386 1.336-.414.333-.683.676-.598.763.085.087 1.09.57 2.234 1.074 1.143.504 2.624 1.376 3.292 1.939.955.804 1.309.939 1.66.628.245-.217.363-.622.263-.9-.22-.612 1.398-2.512 2.14-2.512.285 0 .926.454 1.424 1.008.889.988.895 1.024.347 1.915-.307.5-1.119 1.143-1.804 1.43-1.334.559-1.552 1.088-.742 1.804.717.635 1.903 3.243 2.546 5.6.402 1.473.498 2.656.36 4.415-.314 3.97-1.478 6.662-4.181 9.664-1.956 2.172-4.198 3.605-6.75 4.313-1.768.491-5.347.645-6.648.286zm-5.136-4.813c-.613-.13-.679-.778-.137-1.356.796-.849 4.093-.25 4.093.744 0 .349-.492.522-1.718.605-.945.064-1.952.067-2.238.007zm-3.319-4.035c-.22-.095-.4-.466-.4-.825 0-.608.27-.654 3.837-.654 3.226 0 3.838.083 3.838.52 0 .286-.37.67-.82.852-.836.339-5.728.42-6.455.107zm10.682-3.883c-.571-.48-.85-1.037-.85-1.704 0-.87.473-1.367 3.875-4.073 3.074-2.445 3.967-3.002 4.317-2.691.243.215.442.516.442.67 0 .336-4.69 7.304-5.221 7.756-.86.73-1.724.745-2.563.042zm2.17-2.005c.804-.947.334-1.536-.63-.789-.843.654-1.04 1.45-.36 1.45.236 0 .682-.298.99-.66zm-16.64 1.631c-.124-.216.047-.608.382-.871.475-.374 1.673-.457 5.459-.375 2.668.058 4.952.213 5.075.346.124.132.14.477.036.767-.16.444-1.004.526-5.456.526-3.63 0-5.338-.122-5.495-.393zm2.43-4.17c0-.458.14-.885.312-.947.172-.063 2.079-.037 4.237.057 3.657.158 3.924.216 3.924.852 0 .642-.243.687-4.237.776l-4.237.095zm2.637-3.502c-.563-.242-.497-1.024.106-1.271.774-.317 5.032-.236 5.537.105.245.165.357.546.25.846-.16.443-.697.54-2.845.52-1.457-.016-2.828-.105-3.048-.2zm2.86-3.766c-.904-.184-.767-.808.3-1.364.966-.502 2.634-.11 2.771.65.142.786-1.193 1.097-3.071.714z" fill="#bbaa72"/></svg>