<svg xmlns="http://www.w3.org/2000/svg" viewBox="0 0 75.190077 74.705068" height="282.35" width="284.183"><path d="M31.11 74.359c0-.19-1.03-.467-2.288-.614-1.258-.148-2.39-.44-2.514-.648-.124-.208-.491-.379-.816-.379-.584 0-1.368-.329-4.73-1.983-2.425-1.193-5.056-2.873-6.065-3.873-.279-.276-.635-.502-.792-.502-.822 0-8.093-8.516-8.093-9.48 0-.213-.14-.447-.314-.52-.851-.36-4.285-8.79-4.285-10.521 0-.484-.259-1.148-.575-1.476-.85-.881-.85-13.571 0-13.91.349-.138.576-.741.577-1.532.001-.717.26-1.816.575-2.442.315-.626.573-1.372.573-1.657 0-.465 1.996-4.693 3.181-6.74 3.064-5.29 9.04-10.85 15.217-14.16C23.045 2.7 27.235 1.238 29.29.946c1-.143 1.82-.414 1.82-.603C31.11.155 34.043 0 37.626 0c3.584 0 6.517.155 6.517.343 0 .19.819.46 1.82.602 1.78.252 4.051.983 6.479 2.084.664.3 1.383.547 1.597.547.214 0 .446.134.517.298.07.164.817.652 1.66 1.084 4.16 2.13 9.682 7.348 12.684 11.984 1.607 2.481 3.975 7.206 3.985 7.947.003.249.263.964.578 1.59.315.626.574 1.725.575 2.442 0 .79.228 1.394.577 1.533.48.19.575 1.336.575 6.899 0 5.562-.095 6.708-.575 6.898-.349.14-.576.742-.577 1.533-.001.717-.26 1.816-.575 2.442-.315.626-.573 1.372-.573 1.657 0 .516-2.63 6.163-3.047 6.543-.12.11-.666.917-1.214 1.794-2.787 4.462-9.22 10.166-14.137 12.533-3.607 1.737-4.157 1.965-4.731 1.965-.325 0-.692.17-.816.38-.124.208-1.256.499-2.514.647-1.259.147-2.288.424-2.288.614s-2.933.346-6.517.346c-3.583 0-6.516-.156-6.516-.346zm13.033-1.442c.896-.328 2.168-.602 2.827-.609.658-.007 1.532-.275 1.941-.596.41-.32 1.042-.583 1.407-.583.707 0 1.977-.604 5.868-2.79 3.446-1.936 10.73-8.9 11.754-11.237.586-1.338 1.365-2.681 1.84-3.173.235-.244.427-.743.427-1.11 0-.367.259-.89.575-1.161.316-.272.575-.886.575-1.364 0-.478.253-1.216.563-1.64.31-.424.568-1.231.575-1.793.006-.562.28-1.839.608-2.836.71-2.159.582-11.05-.21-14.62-.452-2.044-.688-2.733-2.074-6.06-.296-.71-.643-1.56-.77-1.887-.129-.328-.574-1.133-.99-1.788-.416-.656-.925-1.586-1.13-2.067-.863-2.03-7.512-8.546-10.953-10.735-2.843-1.809-7.988-4.009-10.534-4.504-.948-.185-2.327-.524-3.063-.754-1.734-.541-9.77-.541-11.505 0-.736.23-2.115.57-3.063.754-2.546.495-7.69 2.695-10.534 4.504-3.44 2.19-10.09 8.705-10.954 10.735-.204.48-.703 1.411-1.108 2.067-.95 1.54-2.32 4.334-2.32 4.734 0 .171-.231.875-.515 1.564-1.145 2.782-1.79 6.884-1.79 11.385 0 4.5.645 8.602 1.79 11.385.284.688.516 1.423.516 1.632 0 .538 2.159 4.688 3.667 7.05 2.375 3.718 7.775 8.854 11.473 10.91 4.084 2.271 5.196 2.799 5.9 2.799.364 0 .996.262 1.406.583.409.321 1.347.603 2.085.626.738.024 1.945.284 2.683.579 1.95.778 10.905.778 13.033 0zM32.069 55.392c-6.288-2.384-10.723-7.098-12.622-13.415-.548-1.821-.661-3.165-.52-6.16.158-3.33.36-4.227 1.549-6.888 1.612-3.608 4.053-6.466 7.33-8.584 3.297-2.13 5.813-2.86 9.847-2.86 10.362 0 18.755 8.624 18.755 19.271 0 8.335-5.31 15.82-13.196 18.606-2.41.851-8.93.868-11.143.03zm8.841-1.387c9.122-1.743 15.154-10.936 13.402-20.428-2.33-12.627-15.916-18.408-26.46-11.259-5.168 3.505-8.216 10.975-7.077 17.345 1.243 6.949 5.982 12.318 12.515 14.18 2.332.664 4.724.715 7.62.162zm-4.05-3.54c0-.53.255-.794.766-.794.512 0 .767.265.767.795s-.255.794-.767.794c-.51 0-.766-.265-.766-.794zm-9.583-3.973c0-.583.256-.795.959-.795 1.07 0 1.321.963.352 1.349-1.014.403-1.31.277-1.31-.554zm19.261.532c-.263-.11-.479-.467-.479-.791 0-.843 1.684-.516 1.845.358.125.679-.388.841-1.366.433zm-10.578-8.48c-1.15-1.046-1.595-1.191-3.655-1.191-1.29 0-2.345-.144-2.345-.318 0-.791 1.075-1.273 2.856-1.28 1.31-.006 2.245-.256 2.894-.772.873-.695.964-1.053 1.02-4.009.033-1.784.233-3.424.445-3.644.8-.83 1.218.203 1.218 3.015 0 2.447.144 3.081.958 4.226.527.74.959 1.743.959 2.227 0 .828-1.94 2.939-2.7 2.939-.187 0-.93-.537-1.65-1.192zm2.433-1.764c0-.315-.18-.688-.4-.829-.495-.317-1.586.565-1.298 1.05.343.575 1.698.4 1.698-.221zM23.28 37c-.323-.54.755-1.282 1.457-1.003.971.387.748 1.356-.312 1.356-.514 0-1.03-.159-1.145-.353zm26.612-.201c0-.621 1.033-1.158 1.568-.815.732.47.332 1.369-.61 1.369-.563 0-.958-.228-.958-.554zm-22.615-9.712c0-1.033.374-1.292 1.2-.833 1.052.583.9 1.562-.241 1.562-.674 0-.959-.217-.959-.729zm18.782.147c0-.32.348-.775.772-1.01.604-.336.82-.3.993.165.12.327.108.781-.029 1.01-.375.63-1.736.5-1.736-.165zm-9.195-3.983c-.384-.48-.356-.638.144-.838.34-.135.897-.135 1.237 0 .5.2.528.359.144.838-.596.744-.93.744-1.525 0z" fill="#bbaa72"/></svg>