<svg xmlns="http://www.w3.org/2000/svg" viewBox="0 0 512 512"><circle cx="256" cy="256" r="256" fill="#0575A5"/><path d="M511.826 262.945L391.16 142.303a6.535 6.535 0 0 0-4.677-1.974H125.545c-3.694 0-6.692 3.034-6.692 6.694v168.443c0 1.615.586 3.11 1.61 4.285l.694.694 186.386 186.358C422.026 483.402 508.6 383.567 511.826 262.945z" fill="#025E90"/><path fill="#E1EFFA" d="M291.722 366.328h-71.47l9.08-44.19h53.305z"/><path fill="#CEE2F2" d="M291.722 366.328l-9.085-44.19h-53.305l44.176 44.19z"/><path fill="#fff" d="M201.114 366.336h109.74v5.338h-109.74z"/><path d="M125.532 140.337c-3.681 0-6.671 3.013-6.671 6.679v168.443c0 3.686 2.99 6.679 6.671 6.679h260.943c3.663 0 6.669-2.993 6.669-6.679V147.016c0-3.666-3.008-6.679-6.669-6.679H125.532z" fill="#34495E"/><path fill="#CEE2F2" d="M132.723 154.189h246.554v154.112H132.723z"/><path fill="#fff" d="M141.696 182.912h228.608v116.403H141.696z"/><path fill="#FF8E31" d="M132.723 154.189h246.554v19.763H132.723z"/><g fill="#fff"><path d="M366.643 164.221c0 1.608-1.313 2.929-2.918 2.929H219.901a2.943 2.943 0 0 1-2.929-2.929v-.287a2.943 2.943 0 0 1 2.929-2.929h143.823c1.605 0 2.918 1.321 2.918 2.929v.287z"/><circle cx="160.945" cy="164.07" r="3.072"/><path d="M181.896 167.15a3.08 3.08 0 0 1-3.072-3.077 3.075 3.075 0 0 1 3.072-3.069 3.067 3.067 0 0 1 3.059 3.069c0 1.695-1.375 3.077-3.059 3.077z"/><circle cx="202.829" cy="164.07" r="3.072"/></g><path d="M308.887 216.374v-4.698l-3.459-1.172a18.224 18.224 0 0 0-.814-3.062l2.401-2.755-2.348-4.073-3.579.709a31.275 31.275 0 0 0-1.078-1.167 33.108 33.108 0 0 0-1.165-1.073l.712-3.581-4.078-2.345-2.749 2.396a20.802 20.802 0 0 0-3.054-.822l-1.18-3.448h-4.705l-1.18 3.448a21.153 21.153 0 0 0-3.057.822l-2.742-2.396-4.076 2.345.709 3.581c-.399.351-.794.709-1.165 1.073a25.47 25.47 0 0 0-1.085 1.167l-3.579-.701-2.348 4.065 2.399 2.755a19.23 19.23 0 0 0-.814 3.062l-3.448 1.172v4.698l3.448 1.18c.189 1.062.466 2.079.814 3.062l-2.399 2.747 2.355 4.073 3.574-.701-.008-.02c.351.407.712.801 1.093 1.18.379.379.773.745 1.18 1.088l-.724 3.569 4.076 2.353 2.742-2.401a19.97 19.97 0 0 0 3.057.822l1.18 3.448h4.705l1.18-3.448a20.101 20.101 0 0 0 3.054-.822l2.749 2.401 4.078-2.353-.712-3.574-.015.008c.407-.346.801-.709 1.18-1.088.371-.374.727-.765 1.078-1.167l3.579.709 2.348-4.073-2.401-2.747c.358-.983.63-2.002.814-3.062l3.457-1.184zm-22.746 7.053c-5.189 0-9.395-4.214-9.395-9.403 0-5.181 4.206-9.39 9.395-9.39 5.197 0 9.398 4.209 9.398 9.39 0 5.189-4.198 9.403-9.398 9.403z" fill="#34495E"/><path d="M276.073 258.248v-7.542l-5.542-1.882a30.645 30.645 0 0 0-1.306-4.915l3.848-4.403-3.771-6.538-5.742 1.139a38.315 38.315 0 0 0-1.731-1.869 38.291 38.291 0 0 0-1.864-1.72l1.134-5.745-6.543-3.773-4.406 3.848a31.952 31.952 0 0 0-4.908-1.321l-1.889-5.535h-7.549l-1.882 5.535c-1.684.31-3.328.758-4.908 1.321l-4.4-3.848-6.538 3.768 1.142 5.745a33.672 33.672 0 0 0-1.871 1.72 46.934 46.934 0 0 0-1.736 1.869l-5.737-1.124-3.771 6.523 3.845 4.403a31.72 31.72 0 0 0-1.311 4.915l-5.535 1.882v7.542l5.535 1.894c.302 1.7.75 3.323 1.311 4.91l-3.845 4.398 3.779 6.538 5.732-1.121-.013-.044a31.403 31.403 0 0 0 1.748 1.894 25.29 25.29 0 0 0 1.902 1.743l-1.172 5.724 6.543 3.786 4.401-3.858a30.868 30.868 0 0 0 4.908 1.316l1.882 5.532h7.549l1.889-5.532a30.897 30.897 0 0 0 4.908-1.316l4.406 3.858 6.543-3.786-1.134-5.732-.028.008a28.872 28.872 0 0 0 1.889-1.743 37.45 37.45 0 0 0 1.731-1.866l5.742 1.137 3.771-6.538-3.848-4.398a30.434 30.434 0 0 0 1.306-4.91l5.536-1.889zm-36.485 4.467a8.233 8.233 0 0 1-8.236-8.238c0-4.536 3.684-8.223 8.236-8.223 4.549 0 8.23 3.686 8.23 8.223 0 4.551-3.681 8.238-8.23 8.238z" fill="#FF8E31"/><path d="M239.588 236.772c-9.777 0-17.713 7.936-17.713 17.705 0 9.784 7.936 17.718 17.713 17.718 9.787 0 17.708-7.936 17.708-17.718-.001-9.772-7.921-17.705-17.708-17.705zm0 25.661a7.954 7.954 0 0 1-7.951-7.956c0-4.383 3.561-7.944 7.951-7.944a7.941 7.941 0 0 1 7.944 7.944c-.003 4.395-3.549 7.956-7.944 7.956z" fill="#34495E"/></svg>