<svg xmlns="http://www.w3.org/2000/svg" viewBox="0 0 512 512"><circle cx="256" cy="256" r="256" fill="#E1EFFA"/><path d="M355.763 163.843v-.036c-13.012 2.796-26.552 5.084-40.53 6.828l-40.108-40.108-.881-.878-.448-.379a26.703 26.703 0 0 0-1.388-1.172c-.243-.189-.479-.387-.735-.576a28.505 28.505 0 0 0-2.066-1.39l-.333-.218c-1.743-1.052-3.656-1.958-5.691-2.719l-.755-.261a35.713 35.713 0 0 0-2.317-.73c-.335-.1-.686-.182-1.032-.274a37.978 37.978 0 0 0-2.232-.484 19.54 19.54 0 0 0-1.142-.21 37.467 37.467 0 0 0-2.381-.317l-1.07-.113a44.823 44.823 0 0 0-3.535-.156c-17.336 0-31.38 10.022-31.38 22.382 0 .983.115 1.953.292 2.908.056.31.146.612.218.914.154.645.34 1.277.576 1.902.123.346.261.676.404 1.006.271.604.576 1.193.909 1.777.169.289.317.584.499.863a22.155 22.155 0 0 0 1.825 2.452c.074.108.182.212.287.323l1.103 1.103c.2.197.381.399.589.589l.026.02 8.806 8.771c.074.415.156.822.156 1.249a7.25 7.25 0 0 1-6.185 7.171c-5.332-.225-10.588-.584-15.823-.963a478.23 478.23 0 0 1-8.489-.709 487.337 487.337 0 0 1-16.967-1.792 464.384 464.384 0 0 1-10.26-1.398c-2.115-.31-4.252-.596-6.349-.927a464.932 464.932 0 0 1-16.164-2.844c-5.153 24.061-8.594 49.884-10.02 76.946.218.548.512 1.024.878 1.495l.1.105c.243.31.54.561.829.829l.499.499 41.928 41.928c-3.786 4.096-8.52 6.561-13.66 6.561-7.022 0-13.238-4.495-17.334-11.482-.182-.287-.33-.512-.435-.801h-.041v-.043c-1.313-2.01-3.548-3.364-6.141-3.364-3.656 0-6.728 2.783-7.165 6.336.765 29.217 3.873 57.19 8.96 83.195l141.617 141.622c104.732-15.255 188.836-93.906 212.224-195.763L355.763 163.843z" fill="#BCD4E8"/><path d="M376.251 239.109c-6.94 0-13.115 4.411-17.226 11.3l-.008.02c-.256.415-.494.842-.73 1.285l-.008.028a7.292 7.292 0 0 1-5.921 3.049c-3.738 0-6.828-2.824-7.204-6.469.077-1.684.131-3.364.225-5.043l.061-1.132c1.446-27.574 5.02-53.896 10.337-78.316v-.036h-.02c-26.184 5.619-54.5 9.221-84.229 10.388a7.258 7.258 0 0 1-6.756-7.235 7.276 7.276 0 0 1 3.343-6.118l.044-.028h.021c.274-.141.548-.289.814-.451 6.999-4.093 11.482-10.345 11.482-17.326 0-12.355-14.044-22.382-31.365-22.382-17.324 0-31.355 10.028-31.355 22.382 0 6.932 4.408 13.112 11.287 17.229l.02.013c.428.246.858.484 1.288.717l.028.013a7.223 7.223 0 0 1 3.062 5.921c0 3.625-2.685 6.643-6.188 7.163-25.933-1.108-50.78-4.081-74.051-8.637-5.176 24.046-8.614 49.884-10.022 76.946a7.222 7.222 0 0 0 6.656 4.403 7.28 7.28 0 0 0 5.924-3.062l.008-.013c.225-.451.479-.878.722-1.3l.003-.02c4.119-6.884 10.307-11.287 17.244-11.287 12.334 0 22.377 14.031 22.377 31.357 0 17.321-10.043 31.337-22.377 31.337-6.994 0-13.245-4.48-17.339-11.489a10.923 10.923 0 0 1-.443-.788l-.005-.013-.02-.051a7.294 7.294 0 0 0-6.124-3.336c-3.674 0-6.725 2.752-7.178 6.321.765 29.23 3.866 57.198 8.968 83.203 23.731 4.744 49.149 7.834 75.661 8.963 3.502-.52 6.188-3.54 6.188-7.165a7.2 7.2 0 0 0-3.062-5.906l-.028-.023c-.43-.218-.86-.471-1.288-.714l-.01-.008c-6.889-4.129-11.297-10.301-11.297-17.242 0-12.344 14.031-22.382 31.355-22.382 17.321 0 31.365 10.038 31.365 22.382 0 6.994-4.483 13.24-11.482 17.334-.266.166-.54.307-.814.448h-.021l-.044.015c-1.997 1.3-3.343 3.553-3.343 6.134 0 3.832 2.988 6.973 6.746 7.232 28.946-1.152 56.556-4.585 82.158-9.938-4.145-21.315-6.932-43.958-8.187-67.512v-.008c-.049-.701-.09-1.37-.133-2.058v-.031c-.079-1.592-.125-3.18-.202-4.803.489-3.525 3.52-6.244 7.163-6.244a7.294 7.294 0 0 1 6.136 3.346l.015.044.015.02c.125.266.271.512.438.788 4.099 6.999 10.342 11.489 17.331 11.489 12.347 0 22.374-14.031 22.374-31.352-.005-17.313-10.032-31.352-22.379-31.352z" fill="#0575A5"/></svg>