<svg xmlns="http://www.w3.org/2000/svg" viewBox="0 0 132.5394 133.21579" height="133.216" width="132.539"><path d="M51.079 131.383C28.088 125.806 8.75 107.076 2.422 84.255-10.753 36.741 31.885-8.663 80.216 1.416c22.216 4.633 41.28 21.389 49.263 43.3 4.08 11.199 4.08 32.588 0 43.786-11.766 32.291-45.65 50.825-78.4 42.88zm27.687-.772c18.984-3.52 37.097-17.363 45.824-35.02 19.796-40.055-4.943-87.014-49.198-93.39C42.205-2.579 9.561 20.253 2.751 53.008c-9.46 45.498 30.294 86.08 76.015 77.603zM59.375 93.427c-.582-.943.328-1.484 2.495-1.484 1.876 0 3.421-.75 3.432-1.667.015-1.226.324-1.189 1.167.142 1.525 2.407 9.48.734 9.48-1.993 0-1.085.644-1.575 1.432-1.088 1.755 1.085 8.117-4.632 7.06-6.344-.418-.675.129-1.938 1.214-2.806 2.74-2.191 4.062-8.512 1.958-9.366-1.304-.53-1.312-.926-.038-1.83 2.112-1.501.088-9.206-2.275-8.66-.975.225-1.373-.41-.949-1.514 1.128-2.94-2.963-7.88-5.892-7.114-1.595.417-2.51-.04-2.51-1.252 0-2.743-6.493-4.98-8.83-3.04-1.386 1.15-1.837 1.135-1.837-.062 0-.956-1.015-1.264-2.555-.775-1.405.446-2.94.186-3.412-.577-.471-.763-.2-1.388.602-1.388 1.011 0 1.05-.764.125-2.491-1.807-3.377-.65-4.175 6.05-4.175 6.46 0 8.785 2.202 5.139 4.869-2.373 1.735-2.369 1.797.13 1.802 1.423.003 4.552 1.203 6.953 2.667 5.18 3.158 5.635 3.225 5.635.825 0-1.01.964-2.638 2.144-3.617 1.82-1.51 2.42-1.401 3.977.728 2.022 2.765.418 6.059-2.951 6.059-2.404 0-2.35.312 1.043 6.063 6.466 10.958 2.469 27.693-8.32 34.832-5.889 3.897-18.801 5.951-20.467 3.256zm-9.427-8.151c-.49-.795 1.124-1.333 4-1.333 2.877 0 4.492.538 4 1.333-.453.733-2.253 1.333-4 1.333-1.746 0-3.546-.6-4-1.333zm-2.309-7.633c2.396-.297 5.996-.29 8 .014 2.004.304.043.547-4.357.54-4.4-.008-6.04-.257-3.643-.554zm15.785-6.476c-.445-1.16-.809-2.34-.809-2.624 0-1.245 14.821-11.557 15.556-10.823 1.199 1.2-9.99 15.556-12.123 15.556-.998 0-2.178-.95-2.624-2.11zm5.89-3.285c1.349-2.52 1.25-2.597-1.286-1.013-2.885 1.802-3.642 3.74-1.46 3.74.708 0 1.944-1.227 2.746-2.727zm-30.032 2.727c.453-.733 4.653-1.333 9.333-1.333 4.68 0 8.88.6 9.333 1.333.522.845-2.9 1.334-9.333 1.334-6.432 0-9.855-.49-9.333-1.334zm3.333-6.666c0-.734 3.265-1.334 7.255-1.334 3.99 0 7.625.6 8.078 1.334.515.832-2.208 1.333-7.254 1.333-4.497 0-8.079-.591-8.079-1.333zm4.667-6.667c.453-.733 3.188-1.333 6.079-1.333 2.89 0 5.254.6 5.254 1.333s-2.735 1.333-6.079 1.333c-3.712 0-5.758-.519-5.254-1.333zm4.666-6.667c0-.733 1.5-1.333 3.334-1.333 1.833 0 3.333.6 3.333 1.333 0 .734-1.5 1.334-3.333 1.334-1.834 0-3.334-.6-3.334-1.334z" fill="#b5a263"/></svg>