<svg xmlns="http://www.w3.org/2000/svg" viewBox="0 0 133.13228 133.13165" height="133.132" width="133.132"><path d="M50.463 131.212c-11.198-2.715-19.843-7.575-29.434-16.547-28.122-26.307-28.026-69.877.214-96.293 26.614-24.897 65.693-24.44 91.805 1.072 15.137 14.789 22.66 36.956 19.29 56.841-6.645 39.21-43.823 64.15-81.875 54.927zm28.455-.592c18.503-3.43 37.106-17.557 45.673-34.68C152.438 40.274 93.426-19.107 37.519 8.321 21.086 16.385 6.98 34.162 2.872 51.99-2.075 73.46 4.726 96.663 20.6 112.463c15.873 15.8 36.461 22.21 58.319 18.157zM61.83 93.33c-.808-3.091-4.605-4.582-8.511-3.342-4.037 1.28-9.628-4.23-8.57-8.448 1.097-4.367-.253-7.84-3.361-8.653-3.824-1-3.824-11.537 0-12.537 3.108-.813 4.458-4.286 3.362-8.654-1.059-4.216 4.532-9.728 8.569-8.447 3.906 1.24 7.703-.25 8.511-3.341 1-3.824 11.538-3.824 12.538 0 .808 3.09 4.605 4.58 8.51 3.341 4.037-1.28 9.628 4.23 8.57 8.447-1.096 4.368.253 7.84 3.362 8.654 2.08.544 2.622 1.838 2.622 6.268s-.541 5.725-2.622 6.27c-3.109.812-4.458 4.285-3.362 8.652 1.058 4.217-4.533 9.729-8.57 8.448-3.905-1.24-7.702.25-8.51 3.341-.545 2.081-1.839 2.623-6.27 2.623-4.43 0-5.724-.542-6.268-2.623zm10.27-2.042c0-2.75 8.11-6.07 10.406-4.261 2.472 1.949 7.952-3.532 6.003-6.003-1.81-2.296 1.512-10.407 4.261-10.407 1.33 0 1.996-1.336 1.996-4 0-2.663-.667-4-1.996-4-2.749 0-6.07-8.11-4.26-10.406 1.948-2.472-3.532-7.952-6.004-6.003C80.21 48.02 72.1 44.697 72.1 41.948c0-1.33-1.337-1.996-4-1.996-2.663 0-4 .667-4 1.996 0 2.75-8.111 6.07-10.406 4.261-2.472-1.949-7.952 3.531-6.003 6.003 1.809 2.296-1.512 10.406-4.262 10.406-1.329 0-1.996 1.337-1.996 4 0 2.664.667 4 1.996 4 2.75 0 6.07 8.111 4.262 10.407-1.95 2.471 3.53 7.952 6.003 6.003 2.295-1.81 10.406 1.512 10.406 4.261 0 1.329 1.337 1.996 4 1.996 2.663 0 4-.667 4-1.996zM57.536 77.183c-3.453-3.453-4.103-5.127-4.103-10.565 0-5.437.65-7.111 4.103-10.564 3.452-3.452 5.126-4.102 10.564-4.102 5.437 0 7.111.65 10.564 4.102 3.452 3.453 4.102 5.127 4.102 10.564 0 5.438-.65 7.112-4.102 10.565-3.453 3.452-5.127 4.102-10.564 4.102-5.438 0-7.112-.65-10.564-4.102zm19.867-1.93c4.733-4.73 4.582-12.689-.333-17.604-8.051-8.051-21.576-2.495-21.576 8.863 0 11.899 13.4 17.245 21.909 8.74zm-16.697-1.24c-2.063-2.064-3.273-4.797-3.273-7.395 0-2.597 1.21-5.33 3.273-7.393 2.063-2.063 4.796-3.273 7.394-3.273 9.321 0 14.007 11.447 7.394 18.06-2.063 2.063-4.796 3.273-7.394 3.273s-5.331-1.21-7.394-3.273zm13.299-1.49c2.694-2.694 2.694-9.115 0-11.81-1.153-1.152-3.81-2.095-5.905-2.095s-4.753.943-5.905 2.096c-2.695 2.694-2.695 9.115 0 11.81 1.152 1.152 3.81 2.094 5.905 2.094s4.752-.942 5.905-2.095z" fill="#b5a263"/></svg>