<svg xmlns="http://www.w3.org/2000/svg" viewBox="0 0 132.69002 132.948" height="132.948" width="132.69"><path d="M49.355 130.712c-10.949-2.861-19.951-8.111-29.509-17.206C-7.008 87.95-6.546 44.14 20.847 18.515c36.247-33.907 93.401-19.293 109.308 27.95 3.38 10.036 3.38 29.963 0 40-11.534 34.255-46.265 53.274-80.8 44.247zm29.485-.246c33.39-6.191 57.655-40.496 52.108-73.668C124.647 19.117 87.236-6.158 51.53 3.142c-12.476 3.25-22.247 8.748-30.95 17.416-25.653 25.548-25.653 66.266 0 91.814 15.602 15.54 36.7 22.092 58.26 18.094zM55.52 84.344c-13.662-11.976-17.443-18.2-16.443-27.068.543-4.822 1.689-6.976 5.631-10.588 4.451-4.08 5.546-4.469 10.881-3.867 3.44.387 7.183 1.843 8.91 3.466l2.977 2.797 2.79-2.79c1.674-1.673 5.191-3.06 8.789-3.466 5.413-.61 6.48-.234 10.947 3.86 3.942 3.612 5.088 5.766 5.631 10.588C96.781 67.458 92.24 73.555 69.23 92.73c-1.841 1.534-3.669.417-13.71-8.386zm23.316-3.424C89.5 71.524 93.355 65.766 93.355 59.237c0-12.524-13.525-18.516-21.856-9.683l-4.17 4.422-4.132-4.422c-4.575-4.897-8.962-5.635-14.982-2.523-6.127 3.169-8.393 10.978-5.517 19.014 1.235 3.45 22.04 24.319 24.315 24.389.546.017 5.866-4.264 11.823-9.514zM45.355 58.404c0-1.5 1.473-4.2 3.273-6 3.26-3.26 8.727-4.475 8.727-1.94 0 .734-1.107 1.334-2.46 1.334-2.974 0-6.873 4.031-6.873 7.105 0 1.226-.6 2.228-1.334 2.228-.733 0-1.333-1.227-1.333-2.727z" fill="#b5a263"/></svg>