<svg xmlns="http://www.w3.org/2000/svg" viewBox="0 0 152.43594 172.73067" height="172.731" width="152.436"><path d="M61.193 171.759c-44.137-9.269-71.546-54.023-57.488-93.868 9.163-25.973 33.227-47.089 57.874-50.785l6.281-.942V18.4c0-7.731-.018-7.766-4.199-8.182-5.115-.509-7.79-4.021-5.652-7.418C59.255.821 61.962.41 75.815.091 93.248-.31 95.86.437 95.86 5.82c0 3.237-2.257 4.646-7.442 4.646-3.048 0-3.224.433-3.224 7.905v7.905l7.16 1.486c3.938.817 11.547 3.589 16.91 6.159l9.75 4.673L123 34.608c3.391-3.391 3.725-4.299 2.239-6.09-1.459-1.759-1.361-2.53.6-4.697 2.306-2.548 2.471-2.496 9.471 2.971 6.703 5.235 6.996 5.706 4.947 7.97-1.226 1.354-3.178 2.088-4.467 1.679-1.493-.474-3.487.696-5.73 3.361l-3.44 4.088 5.333 5.333c6.837 6.837 13.35 17.108 17.274 27.241 2.535 6.546 3.116 10.666 3.199 22.667.088 12.87-.352 15.896-3.592 24.7-7.613 20.686-25.809 38.172-46.974 45.14-10.54 3.47-30.797 4.857-40.667 2.785zm12.02-18.958c.026-5.562 1.593-7.987 4.451-6.89 1.761.676 2.072 1.856 1.414 5.364-1.109 5.909.966 6.649 11.248 4.015 10.142-2.598 18.447-6.493 24.288-11.392l4.578-3.839-3.249-3.48c-2.522-2.701-2.892-3.837-1.654-5.075s2.534-1.041 5.789.882c4.096 2.419 4.239 2.418 6.139-.054 3.864-5.027 8.426-16.466 9.211-23.095l.802-6.77h-5.519c-4.63 0-5.519-.429-5.519-2.667 0-2.237.889-2.667 5.519-2.667h5.519l-.782-6.6c-.758-6.398-5.553-18.043-9.602-23.319-1.956-2.549-2.038-2.546-5.841.266-3.729 2.757-3.929 2.771-6.066.41-2.077-2.295-1.986-2.61 1.521-5.272l3.731-2.83-4-3.443c-11.569-9.957-31.766-15.299-47.816-12.649-9.996 1.651-22.966 7.285-29.517 12.822l-4 3.381 3.182 2.644c3.083 2.562 3.107 2.727.775 5.304-2.401 2.653-2.415 2.652-5.585-.326-2.714-2.55-3.377-2.699-4.539-1.021-3.763 5.435-9.232 18.745-9.998 24.329l-.864 6.303h5.515c4.626 0 5.515.43 5.515 2.667 0 2.222-.889 2.667-5.333 2.667-4.689 0-5.333.374-5.333 3.091 0 5.039 3.881 16.603 7.687 22.904l3.547 5.872 4.216-2.605c3.76-2.324 4.399-2.385 5.912-.561 1.411 1.7 1.158 2.619-1.499 5.457l-3.196 3.412 4 3.337c7.539 6.29 23.432 12.717 33.667 13.614 1.018.089 1.675-1.541 1.687-4.187zm-3.147-42.105c-2.982-3.295-2.783-8.627.43-11.535 2.407-2.179 2.668-4.429 3-25.873.348-22.477.478-23.487 3.03-23.487 2.55 0 2.683 1.011 3.032 23.164.327 20.723.643 23.517 3 26.513 3.35 4.259 3.34 7.617-.032 10.99-3.332 3.332-9.549 3.445-12.46.228z" fill="#606060"/></svg>