<svg xmlns="http://www.w3.org/2000/svg" width="33.333" height="30.292" viewBox="0 0 33.333332 30.29176"><path d="M0 27.333c0-1.412.027-2.727.027-2.727s3.28.025 6.677.025c3.408 0 5.66-.047 5.66-.047s-.029 1.474-.029 2.88c0 1.462.046 2.828.046 2.828s-2.363-.02-5.662-.02c-3.544 0-6.678.02-6.678.02S0 28.672 0 27.333zm0-12c0-1.517.076-3.24.076-3.24s5.216.018 11.257.018c7.03 0 11.062-.004 11.062-.004s-.008 2.084.012 3.115c.024 1.267.05 3.097.05 3.097s-4.233.162-11.124.162c-6.98 0-11.249-.066-11.249-.066L0 15.333zm0-12V0h33.333v6.667H0z" fill="#b5a263"/></svg>