<svg xmlns="http://www.w3.org/2000/svg" viewBox="0 0 153.54672 132.93411" height="132.934" width="153.547"><path d="M7.774 132.645c-.144-.234 5.501-6.107 15.045-15.653l15.277-15.278-1.913-2.11c-8.758-9.664-13.448-23.926-12.262-37.285 1.148-12.926 5.896-22.953 15.117-31.921 8.24-8.016 16.616-12.234 27.629-13.916 3.849-.588 12.205-.518 15.84.133 9.73 1.742 19.054 6.275 25.365 12.332l1.526 1.465 15.317-15.316C133.774 6.04 140.18-.128 140.39.002c.196.121.357.416.357.654 0 .403-131.844 132.052-132.462 132.266-.154.053-.384-.072-.51-.277zm98.804-101.207c-2.241-2.377-7.976-6.263-12.071-8.181-6.706-3.14-12.93-4.516-20.382-4.506-14.313.019-26.499 5.512-35.836 16.154-7.62 8.684-11.358 18.178-11.707 29.724-.219 7.23.556 12.338 2.791 18.4 1.87 5.072 5.52 11.142 8.88 14.772l1.806 1.95 33.696-33.694 33.695-33.694zM45.436 63.356c.097-.505.444-.628 2.002-.709l1.886-.097-.211-7.743c-.116-4.258-.304-10.238-.418-13.288l-.206-5.546-1.871.218c-1.725.2-1.871.167-1.871-.417 0-.555.289-.66 2.32-.837 1.276-.112 4.984-.227 8.24-.256 7.848-.068 10.414.645 13.837 3.847 2.682 2.509 4.083 6.163 4.083 10.65 0 5.801-2.827 10.416-7.842 12.8-2.728 1.297-4.326 1.52-12.666 1.769-7.172.214-7.395.202-7.283-.39zm16.43-1.582c2.942-.812 5.103-3.066 6.099-6.362.769-2.545.937-7.603.346-10.372-1.014-4.75-2.97-7.517-6.079-8.6-1.28-.445-2.488-.557-5.447-.505-2.091.037-3.868.133-3.949.214-.159.159.527 25.407.706 25.989.148.48 6.228.215 8.325-.364zm5.12 55.382c-9.074-1.523-16.38-4.544-23.12-9.558-.923-.687-1.68-1.346-1.68-1.464 0-.117.638-.746 1.417-1.397l1.416-1.184 3.144 2.107c5.117 3.429 9.322 5.267 15.397 6.73 4.239 1.02 12.446 1.391 17.114.773 10.377-1.375 19.019-5.725 26.772-13.479 7.29-7.29 11.53-15.328 13.175-24.975.866-5.076.725-13.458-.303-18.044a48.576 48.576 0 0 0-7.131-16.558c-1.034-1.54-1.88-2.914-1.88-3.055 0-.474 2.498-2.703 2.812-2.509.78.482 4.698 6.827 6.258 10.135 3.496 7.414 5.017 14.057 5.003 21.85-.024 14.03-5.026 25.998-15.06 36.031-7.866 7.866-16.231 12.328-26.849 14.32-3.664.688-13.094.846-16.484.277zm10.774-19.26c.092-.48.461-.61 1.953-.687l1.84-.096-.083-13.184-.083-13.184-2.02-.096c-1.702-.08-2.005-.182-1.917-.64.095-.491.846-.552 7.706-.63 8.448-.095 10.337.157 13.59 1.814 4.528 2.305 7.12 6.93 7.12 12.7 0 6.313-3.61 11.468-9.565 13.658-1.598.587-2.716.674-10.224.798-8.066.133-8.425.113-8.317-.453zm15.9-1.09c3.144-.675 5.869-3.233 6.785-6.37 1.729-5.92.787-13.513-2.092-16.877-1.875-2.19-3.484-2.747-8.406-2.91l-4.24-.138v26.634h3.184c1.751 0 3.897-.153 4.768-.34zM7.033 74.075C2.825 73.263-.312 69.2.024 65c.197-2.44 1.046-4.134 2.955-5.894 1.91-1.76 3.306-2.327 5.769-2.341 3.368-.02 6.235 1.774 7.906 4.948 1.029 1.955 1.022 5.596-.015 7.592-1.902 3.662-5.666 5.531-9.605 4.77zm5.679-2.31c1.595-1.057 3.102-3.293 3.398-5.046.521-3.085-1.099-6.223-3.992-7.735-2.234-1.167-4.39-1.188-6.643-.064-5.361 2.671-5.413 10.342-.09 13.184 2.06 1.1 5.385.945 7.327-.34zm125.586-23.547c-4.55-3.326-8.632-6.433-9.072-6.906-.602-.647-.8-1.208-.8-2.267 0-1.078.187-1.59.8-2.192 1.179-1.158 19.492-9.15 20.966-9.15 1.449 0 3.354 1.7 3.354 2.99 0 1.955-2.254 21.078-2.55 21.63-.596 1.116-1.966 1.94-3.22 1.94-1.059 0-2.21-.734-9.478-6.045zm11.027 4.113c.386-.358.7-.776.7-.926 0-.151.505-4.769 1.12-10.261.617-5.492 1.12-10.122 1.12-10.288 0-.543-1.556-1.872-2.191-1.872-.751 0-18.855 7.908-19.648 8.583-.804.683-.719 2.36.16 3.166 2.07 1.899 16.714 12.25 17.331 12.25.39 0 1.023-.293 1.408-.652zM136.611 23.52c-2.088-2.088-.727-5.415 2.216-5.415 3.418 0 4.441 4.477 1.38 6.042-1.268.65-2.542.427-3.596-.627z" fill="#b5a263"/></svg>