<svg xmlns="http://www.w3.org/2000/svg" viewBox="0 0 512 512"><path d="M490.096 213.64h-20.687v-20.689c0-12.078-9.826-21.904-21.904-21.904H405.81c-12.078 0-21.904 9.826-21.904 21.904v20.689h-20.688c-12.078 0-21.904 9.827-21.904 21.905v41.695c0 12.078 9.826 21.904 21.904 21.904h20.688v20.689c0 12.078 9.826 21.904 21.904 21.904h41.695c12.078 0 21.904-9.826 21.904-21.904v-20.689h20.687c12.078 0 21.904-9.826 21.904-21.904v-41.695c0-12.079-9.826-21.905-21.904-21.905zm1.506 63.6c0 .83-.675 1.505-1.505 1.505H459.21c-5.633 0-10.199 4.566-10.199 10.199v30.888c0 .83-.675 1.505-1.505 1.505H405.81c-.83 0-1.505-.675-1.505-1.505v-30.888c0-5.633-4.566-10.199-10.199-10.199h-30.887c-.83 0-1.505-.675-1.505-1.505v-41.695c0-.83.675-1.506 1.505-1.506h30.887c5.633 0 10.199-4.566 10.199-10.199v-30.888c0-.83.675-1.505 1.505-1.505h41.695c.83 0 1.505.675 1.505 1.505v30.888c0 5.633 4.566 10.199 10.199 10.199h30.886c.83 0 1.505.676 1.505 1.506v41.695zm-160.165-32.668c-.22-3.003-1.423-9.675-1.823-11.842-1.744-10.646-10.807-18.355-21.613-18.355H172.738c-12.079 0-21.905 9.826-21.905 21.904v46.791c0 12.078 9.827 21.904 21.905 21.904h50.447a87.59 87.59 0 0 1-3.416 3.917c-11.811 12.773-29.564 20.1-48.709 20.1-19.724 0-38.565-7.68-51.695-21.073-27.512-28.056-27.2-76.941.666-104.611 13.028-12.933 30.964-20.349 49.207-20.349 12.196 0 23.905 3.253 33.873 9.408l13.097 8.961c8.654 5.922 20.339 4.862 27.786-2.515l38.748-38.385a21.83 21.83 0 0 0 6.4-17.524 21.83 21.83 0 0 0-9.315-16.024c-2.093-1.506-17.201-12.357-23.234-15.904-6.094-3.582-18.526-9.578-25.158-12.531-18.237-8.118-38.843-12.064-62.996-12.064-44.437 0-86.359 17.058-118.042 48.032C18.21 165.877.313 208.626.004 254.779c-.31 46.165 17.015 89.158 48.785 121.059 31.503 31.638 76.137 49.783 122.456 49.783 45.968 0 89.176-17.931 118.543-49.197 25.098-26.718 39.392-59.858 41.34-95.837.409-7.548 1.022-26.285.309-36.015zm-20.679 34.915c-1.684 31.114-14.077 59.806-35.839 82.975-25.528 27.177-63.317 42.764-103.676 42.764-40.932 0-80.297-15.957-108.001-43.778-27.899-28.017-43.113-65.85-42.84-106.531.272-40.67 15.988-78.287 44.254-105.92 27.849-27.227 64.706-42.221 103.781-42.221 21.237 0 39.129 3.369 54.702 10.301 6.036 2.688 17.743 8.323 23.119 11.481 4.489 2.64 17.205 11.67 21.725 14.927l.193.136c.373.255.609.658.65 1.11a1.5 1.5 0 0 1-.44 1.203l-38.748 38.385a1.51 1.51 0 0 1-1.911.172l-13.286-9.091-.37-.242c-13.246-8.243-28.748-12.6-44.833-12.6-23.585 0-46.758 9.575-63.579 26.272-17.006 16.886-26.852 41.125-27.016 66.503-.163 25.377 9.371 49.749 26.156 66.865 16.94 17.279 41.091 27.19 66.26 27.19 24.814 0 48.027-9.713 63.685-26.647 6.973-7.539 12.586-15.746 16.23-23.734a10.2 10.2 0 0 0-9.281-14.432h-68.958c-.83 0-1.506-.675-1.506-1.505v-46.791c0-.83.676-1.505 1.506-1.505h135.264c.746 0 1.371.534 1.486 1.271l.047.277c.672 3.638 1.46 8.397 1.558 9.741.581 7.901.145 24.616-.332 33.424zm-34.359-35.725h-4.08c-5.633 0-10.199 4.566-10.199 10.199s4.566 10.199 10.199 10.199h4.08c5.633 0 10.199-4.566 10.199-10.199.001-5.633-4.566-10.199-10.199-10.199zm-33.657 0h-52.016c-5.633 0-10.199 4.566-10.199 10.199s4.566 10.199 10.199 10.199h52.016c5.633 0 10.199-4.566 10.199-10.199s-4.566-10.199-10.199-10.199z"/></svg>