<svg xmlns="http://www.w3.org/2000/svg" viewBox="0 0 174.24342 46.214978" height="46.215" width="174.243"><path d="M84.255 43.117c2.39-11.91 3.618-26.412 2.276-26.86-2.12-.707-1.747-3.853.562-4.74 1.1-.421 2-1.942 2-3.378C89.093 4.83 95.134 0 99.273 0c4.145 0 4.05 3.106-.18 5.877-4.029 2.64-4.233 4.243-.661 5.177 3.18.832 2.341 4.37-1.259 5.311-1.947.51-2.582 2.618-3.353 11.132-.995 10.993-2.85 15.404-7.525 17.907-2.593 1.387-2.743 1.22-2.04-2.287zm15.978-4.137c.346-.56 1.64-9.41 2.876-19.667C104.345 9.058 105.613.4 105.928.074c.315-.326 1.841.676 3.392 2.227 2.752 2.752 2.779 3.18 1.113 17.64-1.516 13.163-2.08 15.114-5.037 17.44-3.308 2.602-6.37 3.55-5.163 1.6zM1.153 23.908c-.91-6.651-1.38-12.366-1.045-12.7 1.733-1.734 6.48 4.75 7.374 10.071l1 5.947 1.846-5.594c1.887-5.718 4.616-9.08 8.001-9.86 1.369-.316 2.327 1.808 3.414 7.561l1.51 8 1.825-5.757C26.846 16 33.24 9.106 34.14 11.808c.244.732-1.467 5.923-3.803 11.534-2.917 7.007-5.24 10.654-7.418 11.646-4.042 1.842-4.655 1.144-5.49-6.255-.743-6.599-2.259-7.878-3.496-2.95C12.793 30.33 7.937 36 5.186 36c-1.99 0-2.653-1.99-4.033-12.092zm35.94 9.425c-5.205-5.204-2.425-17.86 4.63-21.073 7.548-3.44 14.037-.71 14.037 5.903 0 2.513-1.11 3.77-4.624 5.238-2.543 1.063-5.843 1.932-7.333 1.932-2.93 0-3.318.976-1.521 3.812.827 1.305 2.647 1.559 6.51.906 6.337-1.07 8.333.841 4.027 3.858-4.267 2.988-12.462 2.689-15.726-.576zm10.076-13.89c3.053-2.233 1.468-4.65-1.727-2.634-2.497 1.575-3.832 4.524-2.048 4.524.654 0 2.353-.85 3.775-1.89zM59.283 23c.943-7.15 1.736-14.05 1.762-15.333C61.099 5.043 65.629 0 67.931 0c1.036 0 1.23 2.082.621 6.667-.823 6.204.407 8.786 2.541 5.333 1.485-2.403 7.13-1.409 9.258 1.63 3.666 5.234 2.195 14.25-3.205 19.65-2.837 2.838-9.955 3.702-11.389 1.383-.552-.894-1.654-.894-3.324 0-1.374.735-3.03 1.337-3.681 1.337-.653 0-.415-5.83.53-13zm13.763 5.088c1.632-3.049 1.836-10.316.317-11.255-2.648-1.636-6.937 4.801-6.937 10.413 0 4.203 4.514 4.777 6.62.842zm43.28 5.134c-3.063-3.384-3.152-11.779-.175-16.323 2.875-4.387 9.593-6.987 14.026-5.428 7.73 2.719 8.94 13.851 2.283 21.033-4.182 4.513-12.37 4.877-16.135.718zm11.167-4.155c2.049-2.049 2.086-11.276.05-12.534-3.533-2.184-8.696 10.11-5.561 13.245 1.366 1.365 3.74 1.059 5.511-.711zM143.349 35c-1.008-1.776-3.953-23.08-3.282-23.751 1.788-1.79 6.593 4.6 7.273 9.673l.746 5.562 3.504-6.909c2.333-4.6 4.45-7.044 6.341-7.313 2.505-.358 2.98.503 4.05 7.333l1.214 7.738L164.979 22c2.034-6.08 5.035-10 7.654-10 2.605 0 2.292 1.424-2.737 12.46-3.056 6.706-5.475 10.24-7.434 10.862-3.784 1.2-4.218.632-5.032-6.59-.744-6.598-2.26-7.877-3.497-2.949-1.623 6.469-8.663 12.6-10.584 9.217z" fill="#9e9e9e"/></svg>