<svg xmlns="http://www.w3.org/2000/svg" viewBox="0 0 166.66667 34.666672" height="34.667" width="166.667"><path d="M.889 33.778C.4 33.288 0 25.488 0 16.444V0h33.333v34.667H17.556c-8.678 0-16.178-.4-16.667-.89zM14.597 23c.763-2.75 1.391-5.75 1.396-6.667.018-4.185 2.35-1.032 3.45 4.667.978 5.061 1.817 6.418 4.177 6.753 2.173.31 3.138-.395 3.655-2.666 3.981-17.48 4.156-19.754 1.517-19.754-1.239 0-2.186 2.262-2.792 6.666-.504 3.665-1.37 6.945-1.923 7.287-.554.342-1.74-2.657-2.637-6.665-1.272-5.68-2.187-7.288-4.15-7.288-2.007 0-2.856 1.63-4.175 8.018-1.79 8.67-2.933 8.23-4.364-1.684-.705-4.884-1.466-6.334-3.326-6.334-2.279 0-2.307.529-.506 9.667 2.534 12.862 2.594 13 5.643 13 1.922 0 3.026-1.369 4.035-5zm52.959 10.778c-.49-.49-.89-8.29-.89-17.334V0H100v34.667H84.222c-8.678 0-16.178-.4-16.666-.89zm11.11-9.858c0-3.9.222-4.063 5-3.667 4.342.36 5.056.897 5.423 4.08.583 5.074 4.244 4.855 4.244-.254 0-2.157-.652-4.325-1.45-4.817-1.043-.646-1.043-1.302 0-2.346 1.937-1.936 1.846-7.987-.15-9.983-.88-.88-5.08-1.6-9.333-1.6h-7.733v11.334c0 9.185.379 11.333 2 11.333 1.342 0 2-1.342 2-4.08zm0-11.253c0-3.223.39-3.462 5-3.08 3.974.328 5 .96 5 3.08 0 2.119-1.026 2.751-5 3.08-4.61.382-5 .142-5-3.08zm54.667 4.666V0h33.334v34.667h-33.334zm25.555 8.058c3.638-4.493 3.233-12.725-.827-16.785-2.61-2.61-4.636-3.273-10-3.273h-6.728v24.331l7.555-.627c5.767-.478 8.134-1.341 10-3.646zm-12.666-.947c-.489-.488-.889-4.125-.889-8.08V9.172l5 .414c4.869.403 5.011.566 5.415 6.18.228 3.17-.295 6.62-1.163 7.666-1.627 1.96-6.79 2.585-8.363 1.012zM42.667 26c0-1.111 1.185-2 2.666-2C47.677 24 48 23.111 48 16.667c0-6.445-.323-7.334-2.667-7.334-1.481 0-2.666-.889-2.666-2 0-1.555 1.777-2 8-2 6.222 0 8 .445 8 2 0 1.245-1.26 2-3.334 2-3.151 0-3.333.4-3.333 7.334C52 23.6 52.182 24 55.333 24c2.074 0 3.334.756 3.334 2 0 1.556-1.778 2-8 2-6.223 0-8-.444-8-2zm64 .667c0-.734.6-1.334 1.333-1.334.74 0 1.333-3.555 1.333-8 0-4.444-.592-8-1.333-8-.733 0-1.333-.9-1.333-2 0-1.587 1.926-2 9.333-2h9.333v4c0 2.667-.666 4-2 4-1.1 0-2-.9-2-2 0-1.333-1.333-2-4-2-3.11 0-4 .593-4 2.667 0 1.956.89 2.667 3.334 2.667 2.074 0 3.333.755 3.333 2 0 1.259-1.27 2-3.426 2-2.79 0-3.347.556-3 3 .52 3.655 7.76 5.293 7.76 1.755 0-1.149.9-2.089 2-2.089 1.244 0 2 1.26 2 3.334 0 3.238-.267 3.333-9.334 3.333-5.333 0-9.333-.571-9.333-1.333z" fill="#9d9d9d"/></svg>