<svg xmlns="http://www.w3.org/2000/svg" viewBox="0 0 173.01555 27.067248" height="27.067" width="173.016"><path d="M23.19 25.481c-1.284-.335-2.403-1.916-2.488-3.512-.33-6.21-.587-6.873-2.846-7.311-1.618-.314-2.333.395-2.333 2.311 0 1.661-.864 2.765-2.164 2.765-1.566 0-1.788-.46-.804-1.667.747-.917 2.12-4.234 3.052-7.37.931-3.138 2.262-5.515 2.957-5.283 2.235.745 6.414 13.42 4.762 14.441-1.963 1.213-.504 3.384 2.866 4.266 2.672.698 6.664-2.018 6.664-4.536 0-.71-2.486-3.587-5.523-6.392-4.585-4.233-5.377-5.681-4.664-8.524.473-1.883 2.058-3.805 3.523-4.27 3.79-1.203 8.016.453 7.892 3.091-.065 1.387-.362 1.608-.778.577-.37-.917-2.122-1.667-3.895-1.667-4.846 0-4.099 4.529 1.445 8.757 9.316 7.106 3.843 17.332-7.667 14.324zm-4.52-14.414c-.422-1.1-1.003-2-1.291-2-.288 0-.524.9-.524 2s.581 2 1.291 2 .946-.9.524-2zM62.7 24.289c-7.878-3.886-9.366-12.732-3.286-19.534C62.789.978 64.117.417 69.43.528c6.98.147 8.464 1.014 6.265 3.663-1.185 1.428-1.076 2.24.477 3.529 5.87 4.872-1.025 15.427-8.002 12.248-6.71-3.058-5.275-12.976 2.09-14.449 4.49-.898 5.121-2.496 1.374-3.476-9.13-2.388-15.393 11.715-8.557 19.27 2.52 2.785 9.762 3.23 12.257.754 1.346-1.336 1.513-1.23.84.535-.759 1.996-4.56 3.78-7.986 3.75-.733-.007-3.203-.935-5.49-2.063zM74.432 16.4c1.964-4.31-.487-10.402-3.924-9.75-2.935.556-4.08 10.235-1.411 11.927 2.782 1.764 3.712 1.385 5.335-2.177zm75.217 4c-7.516-12.933-7.694-13.024-7.218-3.664l.425 8.336-6.149-.002c-5.838-.002-6.116-.17-5.51-3.336.584-3.059.239-3.333-4.186-3.333-4.254 0-4.822.392-4.822 3.333 0 2.574-.683 3.329-3 3.313-1.726-.012-2.376-.437-1.531-1 1.472-.982 7.639-18.182 7.641-21.313 0-.917 1.011-1.667 2.246-1.667 1.655 0 3.098 2.862 5.498 10.907 1.79 5.999 3.98 11.149 4.867 11.445 2.317.772 2.263-20.534-.054-21.469-.917-.37-.167-.719 1.667-.776 2.653-.083 4.09 1.245 7.05 6.514 2.044 3.64 4.294 6.974 5 7.41 1.886 1.166 1.588-10.525-.317-12.43-1.245-1.245-.19-1.6 4.745-1.6 3.49 0 6.067.45 5.727 1-.34.55.48 3.1 1.821 5.666l2.44 4.667 1.98-4.654c1.09-2.56 1.7-5.11 1.356-5.667-.345-.557.556-1.013 2.002-1.013 2.46 0 2.381.45-1.23 7-4.112 7.459-4.912 12.796-2.308 15.4 1.245 1.245.593 1.6-2.933 1.6s-4.178-.355-2.933-1.6c.88-.88 1.6-2.663 1.6-3.962 0-3.452-6.287-17.104-7.877-17.104-.795 0-1.516 5.11-1.74 12.333l-.383 12.333zm-21.141-9.332c-.788-2.566-1.543-4.516-1.678-4.333-.135.182-.903 2.282-1.707 4.665-1.375 4.076-1.275 4.334 1.677 4.334 2.972 0 3.063-.25 1.708-4.666zM.589 23.467C2.613 21.443 2.715 4.792.715 2.792-.362 1.715 1.435 1.194 7.384.86c8.55-.482 8.883-.34 6.805 2.875-.861 1.333-1.3 1.444-1.313.333-.011-.959-1.72-1.667-4.02-1.667-3.707 0-4 .353-4 4.822 0 4.425.275 4.77 3.333 4.185 2.046-.391 3.334-.024 3.334.95 0 .874-1.35 1.54-3 1.482-2.33-.082-3.097.732-3.43 3.642-.236 2.06.287 4.61 1.163 5.666 1.332 1.605.867 1.92-2.837 1.92-3.445 0-4.074-.356-2.83-1.6zm41.37-9.905l.436-11.512-3.436.657c-2.025.387-3.438.048-3.44-.825 0-.982 2.929-1.33 8.668-1.035 7.073.365 8.65.856 8.565 2.667-.066 1.386-.358 1.593-.778.553-.37-.917-1.867-1.667-3.326-1.667-2.475 0-2.625.763-2.222 11.337.402 10.59.256 11.336-2.236 11.336-2.494 0-2.638-.743-2.23-11.511zm37.672 6.505C81.37 12.584 81.13 2.732 79.19 1.95c-.916-.37-.135-.72 1.737-.778 2.908-.09 3.752.866 5.802 6.567 1.32 3.67 2.862 6.958 3.428 7.307.566.35 2.218-2.502 3.671-6.338 2.063-5.445 3.343-7.06 5.836-7.366 2.076-.254 2.613.004 1.537.74-1.243.847-1.393 3.86-.6 12.057 1.012 10.471.942 10.928-1.677 10.93-2.514.002-2.697-.668-2.273-8.333.513-9.287-.74-9.258-3.91.092-1.163 3.431-2.635 6.136-3.272 6.01-.637-.127-2.385-3.427-3.885-7.334L82.856 8.4l-.41 7.207c-.277 4.863.157 7.567 1.333 8.313 1.179.748.602 1.113-1.783 1.126-3.394.02-3.483-.166-2.365-4.98zm25.892-7v-12h5.411c7.464 0 10.24 2.308 9.693 8.059-.374 3.94-1.114 4.825-5.104 6.108-4.995 1.606-7.146 6.53-3.784 8.662 1.207.764.49 1.137-2.216 1.15l-4 .02zM116.189 8.4c0-4.516-.46-5.398-3-5.76-2.741-.389-3 .108-3 5.76s.259 6.149 3 5.76c2.54-.361 3-1.244 3-5.76z" fill="#a2a2a2"/></svg>