<svg xmlns="http://www.w3.org/2000/svg" viewBox="0 0 180 22.666668" height="22.667" width="180"><path d="M6.397 14.333C6.04 6.85 5.694 5.957 3 5.573c-1.928-.273-3-1.345-3-3C0 .277 1.001 0 9.333 0c8.445 0 9.334.254 9.334 2.667 0 1.955-.89 2.666-3.334 2.666C12.12 5.333 12 5.644 12 14c0 7.707-.288 8.667-2.603 8.667-2.262 0-2.655-1.093-3-8.334zm14.258 6.49c-3.449-2.522-3.449-11.124 0-13.646C25.614 3.551 31.668 6.057 32.308 12c.31 2.876-.236 3.39-3.975 3.751-2.383.23-4.333 1.045-4.333 1.811 0 .812 1.359 1.053 3.252.578 3.68-.924 6.082 1.53 3.252 3.322-2.724 1.726-6.994 1.449-9.85-.64zM26.933 10.4c-1.244-1.244-1.955-1.244-3.2 0-1.244 1.244-.889 1.6 1.6 1.6 2.49 0 2.845-.356 1.6-1.6zm11.162 10.171c-4.847-4.847-1.088-15.238 5.513-15.238 3.695 0 6.912 3.776 4.492 5.272-.95.587-2.862.772-4.248.41-2.014-.527-2.519.068-2.519 2.974 0 3.186.401 3.533 3.252 2.817 3.831-.961 5.655 1.162 3.367 3.92-2.12 2.554-7.228 2.474-9.857-.155zM53.333 12c0-5.867.251-10.667.558-10.667.307 0 1.507-.364 2.667-.809 1.578-.606 2.109.034 2.109 2.542 0 2.698.521 3.215 2.673 2.652C65.878 4.53 68 7.648 68 15.497c0 6.28-.33 7.17-2.667 7.17-2.271 0-2.666-.89-2.666-6 0-4.445-.519-6-2-6-1.482 0-2 1.555-2 6 0 5.11-.395 6-2.667 6-2.444 0-2.667-.89-2.667-10.667zm21.94 7.394C68.495 12.616 73.13 0 82.399 0c4.74 0 9.523 4.612 7.196 6.938-1.166 1.166-2.328 1.12-4.774-.189-4.31-2.307-6.154-.897-6.154 4.705 0 5.028 2.76 7.234 5.848 4.672 1.818-1.509 6.152-.704 6.152 1.143 0 .542-1.098 1.977-2.439 3.191-3.533 3.198-9.154 2.736-12.955-1.066zm19.394-5.283V5.556h6.1c4.871 0 5.945.402 5.333 1.997-.422 1.1-.767 2.483-.767 3.075 0 .591-1.05.992-2.333.89-1.828-.145-2.422 1.042-2.743 5.482-.332 4.581-.906 5.667-3 5.667-2.296 0-2.59-.974-2.59-8.556zm16.155 6.845c-.819-.82-1.489-4.67-1.489-8.556 0-6.178.336-7.067 2.667-7.067 2.272 0 2.667.89 2.667 6 0 4.445.518 6 2 6 1.481 0 2-1.555 2-6 0-5.11.395-6 2.666-6 2.39 0 2.667.89 2.667 8.556v8.555h-5.844c-3.215 0-6.515-.67-7.334-1.488zm17.723-.125c-.387-1.01-.519-4.76-.291-8.334L128.667 6l6.32-.269C142.479 5.413 144 7.245 144 16.58c0 5.139-.404 6.088-2.59 6.088-2.085 0-2.67-1.085-3-5.563-.586-7.956-3.743-8.418-3.743-.548 0 5.253-.38 6.11-2.709 6.11-1.49 0-3.025-.826-3.413-1.835zM149.66 21c-6.323-7.902.53-18.87 8.969-14.354 2.194 1.175 2.528 1.96 1.408 3.31-.808.972-2.646 1.46-4.086 1.084-2.097-.548-2.618-.007-2.618 2.726 0 3.724 1.964 5.784 3.36 3.524.61-.986 1.458-.938 2.775.155 1.439 1.194 1.532 2.017.385 3.399-1.893 2.281-8.413 2.381-10.193.156zm15.953-9.319c.325-9.219.762-11.057 2.72-11.43 1.715-.328 2.334.43 2.334 2.86 0 2.653.528 3.168 2.673 2.607 4.538-1.187 6.66 1.93 6.66 9.779 0 6.21-.347 7.17-2.59 7.17-2.085 0-2.67-1.085-3-5.563-.586-7.956-3.743-8.418-3.743-.548 0 5.262-.378 6.11-2.72 6.11-2.55 0-2.697-.69-2.334-10.985z" fill="#9f9f9f"/></svg>