<svg xmlns="http://www.w3.org/2000/svg" viewBox="0 0 161.12956 40.000012" height="40" width="161.13"><path d="M0 38.667c0-.734.836-1.334 1.857-1.334 2.853 0 3.476-3.107 3.476-17.333 0-14.226-.623-17.333-3.476-17.333C.836 2.667 0 2.067 0 1.333 0 .52 6.222 0 16 0h16l-.042 6.333c-.044 6.548-.494 6.518-4.625-.304-.749-1.238-3.816-2.534-7-2.958l-5.666-.755v8.175c0 7.91.112 8.176 3.458 8.176 2.337 0 3.684-.865 4.155-2.667 1.304-4.984 3.053-2.692 3.053 4s-1.75 8.984-3.053 4c-.47-1.802-1.818-2.667-4.155-2.667-3.2 0-3.458.44-3.458 5.891 0 7.158 1.015 10.11 3.476 10.11 1.021 0 1.857.6 1.857 1.333C20 39.437 15.778 40 10 40s-10-.563-10-1.333zm35.07-.263C32.04 36.94 28 29.904 28 26.089c0-1.196.853-4.216 1.895-6.71 5.19-12.42 24.218-10.522 26.692 2.664 1.03 5.49-1.773 12.768-6.076 15.783-3.481 2.438-11.007 2.72-15.44.578zm10.854-2.7c2.336-3.336 2.762-13.727.776-18.95-1.606-4.223-6.013-4.53-8.133-.567-1.927 3.599-1.01 17.537 1.34 20.367 2.352 2.835 3.555 2.665 6.017-.85zm11.41 3.105c0-.655.9-1.536 2-1.958 3.047-1.17 2.858-20.238-.218-21.96-2.006-1.122-1.974-1.307.333-1.942 8.998-2.474 9.884-2.421 9.884.591v2.925l3.086-2.9c5.185-4.87 9.787-3.605 7.237 1.99-1.049 2.303-2.26 3.09-4.04 2.625-5.114-1.338-6.283.36-6.283 9.133 0 7.162.43 8.662 3 10.454 2.857 1.993 2.571 2.096-6 2.163-4.95.039-9-.466-9-1.12zm27.302.17c-.804-.577-1.352-7.603-1.333-17.106.02-11.09-.497-16.763-1.658-18.162-1.44-1.736-1.071-2.16 2.5-2.873C91.625-.658 92-.42 92 5.829v5.83l5.465-.144c7.487-.196 11.868 4.735 11.868 13.36 0 5.112-.708 6.766-4.533 10.592-4.034 4.034-5.319 4.53-11.667 4.513-3.923-.012-7.747-.462-8.497-1zm11.85-2.015c1.28-.936 2.866-4.086 3.526-7 1.904-8.42-.572-15.297-5.509-15.297-2.263 0-2.503 1.15-2.503 12 0 6.6.485 12 1.078 12 .594 0 2.127-.766 3.407-1.703zm22.031 1.112c-7.417-4.192-8.42-16.778-1.861-23.338 4.72-4.72 14.403-4.857 18.128-.257 1.402 1.731 2.55 4.581 2.55 6.333 0 3.002-.46 3.186-7.922 3.186-4.357 0-8.203.456-8.547 1.013-.345.557.182 2.937 1.17 5.287 1.991 4.735 6.364 6.545 12.298 5.09 3.42-.838 3.519-.748 1.471 1.337-3 3.054-12.902 3.827-17.287 1.349zm10.816-17.967c0-4.256-1.487-6.776-4-6.776-2.512 0-4 2.52-4 6.776 0 1.953.946 2.558 4 2.558 3.055 0 4-.605 4-2.558zm12.334 19.008c-.917-.37-1.664-2.573-1.66-4.895l.007-4.222 3.038 3.797c3.714 4.641 9.37 4.594 10.035-.083.336-2.366-.792-3.522-5.68-5.82-7.06-3.318-8.89-7.432-5.564-12.508 2.344-3.577 9.34-5.548 14.815-4.174 2.673.67 3.342 1.67 3.342 4.993v4.155l-2.82-3.586c-3.295-4.188-8.513-4.308-8.513-.195 0 1.649 2.163 3.84 6 6.078 4.796 2.796 6.082 4.328 6.409 7.632.6 6.072-3.854 9.74-11.66 9.606-3.345-.058-6.832-.408-7.749-.778z" fill="#9e9e9e"/></svg>