<svg xmlns="http://www.w3.org/2000/svg" viewBox="0 0 153.54672 132.93411"><path d="M7.774 132.645c-.144-.234 5.501-6.107 15.045-15.653l15.276-15.279-1.912-2.11c-8.758-9.664-13.448-23.925-12.262-37.284 1.148-12.926 5.896-22.953 15.117-31.922 8.24-8.015 16.616-12.234 27.629-13.916 3.849-.588 12.205-.518 15.84.133 9.73 1.742 19.054 6.275 25.365 12.332l1.525 1.464 15.318-15.315C133.774 6.038 140.178-.13 140.39.001c.196.121.357.416.357.654 0 .403-131.844 132.051-132.462 132.265-.154.053-.383-.071-.51-.277zm98.804-101.207c-2.241-2.377-7.976-6.264-12.072-8.181-6.705-3.14-12.931-4.516-20.381-4.506-14.313.019-26.499 5.512-35.836 16.154-7.62 8.684-11.359 18.178-11.708 29.724-.218 7.229.557 12.337 2.792 18.399 1.87 5.072 5.519 11.142 8.88 14.772l1.806 1.95 33.696-33.694 33.696-33.694zM45.436 63.356c.096-.505.443-.628 2.002-.709l1.885-.097-.211-7.743c-.116-4.258-.304-10.238-.418-13.288l-.206-5.546-1.871.217c-1.725.2-1.871.168-1.871-.417 0-.555.289-.659 2.32-.837 1.276-.112 4.984-.227 8.24-.255 7.848-.069 10.414.645 13.837 3.847 2.682 2.508 4.083 6.163 4.083 10.65 0 5.801-2.827 10.415-7.841 12.8-2.728 1.297-4.326 1.52-12.667 1.769-7.172.214-7.395.202-7.282-.391zm16.43-1.582c2.942-.812 5.103-3.067 6.098-6.363.769-2.544.937-7.602.346-10.372-1.014-4.751-2.97-7.517-6.079-8.599-1.281-.446-2.488-.558-5.448-.506-2.091.037-3.868.133-3.949.214-.159.159.527 25.407.706 25.989.148.481 6.228.216 8.325-.363zm5.12 55.382c-9.075-1.523-16.382-4.544-23.12-9.558-.924-.688-1.68-1.346-1.68-1.464 0-.118.637-.747 1.416-1.398l1.416-1.184 3.144 2.107c5.117 3.429 9.322 5.267 15.397 6.73 4.239 1.021 12.445 1.391 17.114.773 10.377-1.374 19.019-5.725 26.772-13.478 7.289-7.289 11.53-15.329 13.175-24.976.865-5.075.725-13.458-.303-18.044a48.558 48.558 0 0 0-7.132-16.558c-1.034-1.539-1.88-2.914-1.88-3.055 0-.474 2.499-2.702 2.812-2.509.78.482 4.698 6.827 6.258 10.135 3.496 7.414 5.017 14.057 5.004 21.85-.025 14.03-5.026 25.998-15.06 36.031-7.866 7.866-16.232 12.328-26.85 14.32-3.664.688-13.094.846-16.484.277zm10.774-19.26c.091-.479.461-.61 1.953-.688l1.84-.096-.084-13.184-.084-13.184-2.02-.096c-1.701-.081-2.004-.182-1.916-.64.094-.491.846-.553 7.706-.63 8.448-.095 10.337.157 13.591 1.814 4.527 2.306 7.12 6.93 7.12 12.7 0 6.313-3.611 11.468-9.566 13.658-1.598.587-2.716.675-10.223.798-8.066.133-8.425.113-8.317-.453zm15.899-1.091c3.145-.674 5.869-3.232 6.786-6.369 1.729-5.92.787-13.513-2.092-16.877-1.875-2.191-3.484-2.747-8.406-2.909l-4.24-.139v26.634h3.184c1.751 0 3.897-.153 4.769-.34zM7.033 74.076C2.825 73.264-.313 69.201.024 65c.196-2.44 1.045-4.134 2.954-5.894 1.909-1.76 3.306-2.327 5.769-2.341 3.369-.019 6.235 1.774 7.906 4.948 1.029 1.954 1.022 5.595-.015 7.592-1.902 3.662-5.666 5.532-9.605 4.771zm5.679-2.311c1.596-1.056 3.102-3.292 3.398-5.045.521-3.085-1.099-6.223-3.992-7.735-2.234-1.167-4.389-1.188-6.643-.065C.114 61.591.062 69.263 5.386 72.104c2.06 1.099 5.384.945 7.326-.339zm125.587-23.547c-4.55-3.325-8.633-6.433-9.073-6.906-.602-.647-.8-1.208-.8-2.267 0-1.078.187-1.591.8-2.192 1.179-1.158 19.492-9.149 20.967-9.149 1.448 0 3.353 1.698 3.353 2.989 0 1.954-2.254 21.078-2.549 21.63-.597 1.116-1.967 1.941-3.222 1.941-1.058 0-2.209-.735-9.477-6.046zm11.027 4.114c.385-.359.7-.776.7-.927 0-.151.504-4.768 1.12-10.261.616-5.492 1.12-10.122 1.12-10.288 0-.543-1.556-1.872-2.192-1.872-.751 0-18.855 7.908-19.648 8.583-.803.683-.719 2.36.16 3.166 2.07 1.899 16.715 12.251 17.331 12.251.389 0 1.023-.294 1.408-.652zM136.611 23.52c-2.088-2.088-.727-5.415 2.215-5.415 3.418 0 4.442 4.477 1.381 6.043-1.269.649-2.542.427-3.596-.627z"/></svg>